<svg version="1" xmlns="http://www.w3.org/2000/svg" width="3805.333" height="3805.333" viewBox="0 0 2854.000000 2854.000000"><path d="M1428.4 8.1l.1 7.1-20 15.5c-11 8.5-21.3 16.6-23 17.8-1.6 1.3-8.7 6.8-15.6 12.2-6.9 5.4-14.1 10.9-15.9 12.3-1.8 1.4-19.5 15.1-39.4 30.5-19.9 15.5-58.1 45.2-85.1 66.1-98.7 76.6-158.1 122.6-161 124.9-1.6 1.3-6.4 5-10.5 8.1-4.1 3.2-7.7 6.1-8 6.4-.3.3-2.1 1.7-4 3-1.9 1.4-6.6 5-10.5 8.1-3.8 3-11 8.7-16 12.5-4.9 3.8-9.7 7.4-10.5 8.1-.8.6-9.1 7.1-18.5 14.4-9.3 7.2-18.3 14.2-20 15.5-1.6 1.3-18.7 14.5-38 29.4-19.2 14.9-35.9 27.9-37 28.8-1.1.9-4.7 3.7-8 6.2-5.8 4.4-39.6 30.7-46.5 36.1-1.9 1.5-14.1 10.9-27 20.9-12.9 10-24.5 19-25.8 20.1-1.2 1-2.6 1.9-3.1 1.9s-1.1.4-1.3.9c-.1.5-3.4 3.2-7.3 6.2-3.8 2.9-7.6 5.8-8.5 6.5-.8.7-17 13.4-36 28-56.8 44-62.4 48.4-64 49.7-.8.7-8.5 6.6-17 13.1-8.5 6.6-17.1 13.2-19 14.8-1.9 1.6-3.9 3.2-4.5 3.6-3.3 2.5-36.4 28-38 29.4-1.1.9-17.5 13.6-36.5 28.3-19 14.7-36.3 28.1-38.4 29.8-2.1 1.8-5.1 4.1-6.7 5.2-1.5 1.1-9.4 7.2-17.6 13.6-8.1 6.3-31 24.1-50.8 39.4-19.8 15.3-37.6 29.1-39.5 30.7-1.9 1.6-3.9 3.2-4.5 3.6-1.5 1.2-40.8 31.5-42 32.4-8.8 7-19.6 15.4-61.5 47.8-42.3 32.8-58.2 45.1-66 51.3-.9.7-5.4 4.1-10 7.7-4.7 3.5-8.8 6.8-9.1 7.2-1.4 2 .4 83.9 2.6 118.3.4 6 .8 13.7 1 17 .2 3.3.6 9.6.9 14 .4 4.4.9 10.9 1.1 14.5 1.4 18 3.5 40.4 5 53.5.3 2.2.7 6.7 1 10 .3 3.3.8 7.4 1 9.1.2 1.7.7 5.7 1 9 .3 3.2.8 7 1 8.4.3 1.4.7 4.7 1 7.5.5 4.4 2.3 17.4 4.1 30 .3 2.2.7 5.1.9 6.5.7 4.8 3.6 24.5 4.1 27.5.3 1.6.7 4.3 1 6 .2 1.6.6 4.1.9 5.5.3 1.4.8 4.5 1.1 7 .3 2.5.7 5.2.9 6 .2.8.7 3.1 1 5 .3 1.9 1 5.7 1.5 8.5.5 2.7 1.2 6.6 1.5 8.5.6 3.2 6.8 35.9 8.1 42 1.2 5.9 6.1 29.3 6.8 32.5.3 1.1 1.2 5.3 2 9.4.9 4 1.8 7.6 2 8 .2.3.7 2.2 1 4.1.7 4.6 4.3 19.7 4.9 20.7.3.4.8 2.6 1.1 4.8 1.2 7.7 16.7 65.7 25.8 96.5 11.8 40.3 30.7 97.2 45.3 136.5 3.7 9.9 6 16 15 39 4.5 11.6 16.5 40.8 20.1 49 1 2.2 1.8 4.2 1.8 4.5.1.5 11.3 25.9 16.4 37 8.3 18.3 13.6 29.9 18.7 40.5 7.3 15.2 27 54.7 32.2 64.5 2.2 4.1 6.4 12 9.3 17.5 11.7 22.2 31.7 57.6 46.9 83 5.3 8.8 10 16.8 10.6 17.8 3.3 5.7 21.1 34 27.7 44 4.3 6.5 7.8 12 7.8 12.2 0 .4 14.2 21.8 14.9 22.5.4.3 1.1 1.3 1.6 2.2 1.2 2 16.4 24.1 23.6 34.3 2.7 3.8 5.7 8.1 6.7 9.5 7.3 10.9 51.7 70.2 56.9 76 .7.8 4.3 5.3 8 10 12.3 15.6 44.9 55.1 51.8 62.6.5.6 3.5 4 6.5 7.4 3 3.5 6.2 7.1 7 8 .8.9 4 4.5 7 7.9 3 3.5 6.6 7.5 8 9 1.4 1.5 6.8 7.4 12 13.1 37.6 41.3 81.4 85.1 126.5 126.6 6.1 5.5 13 11.8 15.5 14 2.5 2.1 4.7 4.2 5 4.5 2.2 2.5 39.2 34.3 58 50 26.6 22.1 88.5 70 110.5 85.5 1.1.8 6.3 4.5 11.5 8.2 5.2 3.7 13.1 9.2 17.5 12.2s8.2 5.7 8.5 6.1c2.2 2.6 80.6 53.1 103 66.4 3.6 2.1 8.8 5.4 11.7 7.2 2.8 1.8 5.3 3.3 5.6 3.3.2 0 5.3 2.9 11.2 6.5 5.9 3.6 10.8 6.5 11 6.5.1 0 4.7 2.5 10.1 5.6 21.5 12.2 32.9 18.5 45.9 25.4 5.5 2.9 12.7 6.7 16 8.5 11.1 6 59.7 30.2 76.5 38 30.1 14 37.8 17.5 38.9 17.5.5 0 3.1-1.1 5.8-2.4 2.6-1.4 7-3.4 9.7-4.6 18.1-8 87.3-42.5 100.1-50 1.7-.9 7.1-3.9 12-6.5 20.1-10.7 59-32.9 83.1-47.6 9.3-5.6 18.7-11.3 20.9-12.6 15.6-9.3 64.5-41.3 86-56.1 13.3-9.2 34.7-24.3 40-28.2 2.8-2 11.8-8.6 20.1-14.7 13.1-9.6 35.8-26.8 40.4-30.6.8-.6 5.6-4.3 10.5-8.2 5-3.8 11.7-9.1 15-11.8 3.3-2.7 6.7-5.4 7.5-6 3.8-3.1 18.9-15.4 22.1-18.2 1.9-1.6 4.6-3.9 6-5 5.3-4.3 14.4-12 14.9-12.5.3-.3 3.4-3 7-6s6.7-5.8 7-6.1c.6-.6 14.8-13.1 19.4-17 1.6-1.3 3.6-3.1 4.5-4 .9-.9 6.8-6.3 13.1-12 27.2-24.7 38.8-35.8 71.4-68.5 27.8-27.8 33.8-34 62.5-64.9 17-18.3 45.8-51.4 67-77 14.4-17.4 14.1-17 19.1-23.5 1.9-2.4 4.4-5.4 5.5-6.6 1.1-1.2 2.7-3.1 3.5-4.4.8-1.2 2.3-3.2 3.3-4.3 1-1.2 4.4-5.6 7.5-9.7 3.2-4.1 6-7.7 6.3-8 .3-.3 3.9-5 8-10.5s7.6-10.2 7.9-10.5c.3-.3 1.7-2.1 3-4s2.7-3.7 3-4c.6-.5 15.4-20.8 18-24.6.8-1.3 5.8-8.3 11-15.6 25.9-36.3 54.7-80.5 79.9-122.3 7.2-12.1 13.6-22.7 14.1-23.5.8-1.3 7.8-13.5 14-24.5 33-58.3 62.8-117.5 91-181 3.4-7.7 7.1-15.9 8.1-18.2 1.1-2.3 1.9-4.5 1.9-4.8 0-.4 1.4-3.6 3-7.2 1.7-3.5 3-6.7 3-6.9 0-.3.8-2.4 1.9-4.7 2.7-6 19.2-47.4 23.6-59.2 2-5.5 4.1-10.9 4.5-12 1.1-2.4 7.6-20.5 12-33 1.7-5 3.7-10.4 4.3-12 .7-1.7 1.2-3.2 1.2-3.5.1-.3 4.2-12.9 9.2-28 10.1-30.3 19.6-61.5 26.8-87.5 2.5-9.4 5-18.1 5.5-19.5.5-1.4 1.2-3.6 1.4-5 .3-1.4 1.2-5.2 2.1-8.5 2.3-8.4 10.6-41.5 11.1-44.4.3-1.4.7-2.8.9-3.1.2-.4.6-2 .9-3.6.3-1.6 1.7-7.9 3.1-13.9 3.1-13.2 2.9-12.2 5.9-26.5 5.8-26.7 16.3-81.2 18.1-93.5.2-1.7.9-5.9 1.5-9.5.6-3.6 1.3-7.9 1.6-9.5.2-1.7.6-4.1.9-5.5.4-2.4.9-5.6 2-13.8 1.1-7.3 1.7-11.7 2.1-13.7.3-1.1.6-3.8.9-6 .2-2.3.8-7 1.4-10.5.5-3.6 1.3-9 1.6-12 .3-3 .8-6.6 1-8 .2-1.4.7-5 1-8 .3-3 .8-6.6 1-8 .2-1.4.6-5.2 1-8.5.6-6.7 1.4-13.7 2.9-27 .3-2.2.8-7.7 1.1-12.2.3-4.5.7-9 .9-10 .2-1 .7-6.3 1.1-11.8.3-5.5.8-11.4 1-13 .6-4.4 1.9-24.7 2.9-43.5.3-5.2.8-14.5 1.1-20.5 1-16.5 1.4-30.7 2-67.2l.6-33.2-8.1-6.3c-7.8-6-33.3-25.8-35.5-27.5-.5-.5-14.9-11.6-32-24.8-17-13.2-36.2-28-42.6-33-6.4-4.9-12.9-10-14.5-11.2-1.6-1.2-4-3.1-5.4-4.2-1.4-1.1-14.2-11-28.5-22-14.3-11.1-26.5-20.5-27.1-21-.7-.5-12.6-9.8-26.5-20.6-14-10.8-26.1-20.2-26.9-20.8-.8-.7-5.5-4.4-10.5-8.2-4.9-3.8-17.8-13.7-28.5-22s-26.9-20.9-36-27.9c-9.1-7-17.4-13.5-18.5-14.4-1.1-.9-4.7-3.7-8-6.2s-6.6-5-7.5-5.7c-.8-.7-6-4.7-11.5-9-51.5-39.8-113.1-87.4-117.5-90.9-4.9-3.9-47.9-37.2-56-43.4-1.8-1.4-4.1-3.2-5.1-4-.9-.8-3-2.4-4.5-3.5s-7.3-5.6-12.9-10c-5.7-4.4-14.4-11.2-19.5-15-5-3.9-9.7-7.5-10.3-8-.7-.6-10.8-8.5-22.5-17.5-23.2-17.9-75.9-58.7-80.7-62.5-1.6-1.3-15.8-12.2-31.5-24.4-15.7-12.1-28.9-22.4-29.5-22.8-.5-.5-10-7.8-21-16.3s-20.2-15.7-20.5-16c-.3-.3-4.1-3.2-8.5-6.5s-8.2-6.3-8.5-6.6c-.3-.3-4.5-3.6-9.5-7.3-4.9-3.8-9.2-7.1-9.5-7.5-.3-.3-2.3-1.9-4.5-3.5-5.9-4.4-34.6-26.9-45-35.4-4.9-4-9.7-7.9-10.5-8.5-12.6-10.1-22.6-18.2-23-18.7-.3-.3-8.6-7-18.5-15-9.9-7.9-18.2-14.7-18.5-15-.3-.3-6.3-5.2-13.5-11-7.1-5.8-13.7-11-14.5-11.7-.8-.7-9.4-7.6-19-15.4-9.6-7.8-18.6-15.1-20-16.3-2.4-2-6-4.9-36-29.1-7.4-6-13.7-11.1-14-11.5-.3-.3-3.9-3.2-8-6.5-4.1-3.2-7.7-6.2-8-6.5-.3-.3-3.6-3-7.5-6-8.6-6.8-10.4-8.2-11.9-9.5-.6-.6-6-5.1-12.1-10-6-4.8-12.4-10-14.1-11.4-1.7-1.4-4.8-4-6.9-5.6-2.1-1.7-4.3-3.5-4.9-4-.6-.6-5.6-4.6-11.1-9s-10.9-8.8-12-9.7c-6.7-5.6-51.6-41.8-51.9-41.8-.2 0-.3 3.2-.2 7.1zM1009 383.3c0 .2-1.9 1.8-4.2 3.6l-4.3 3.2 3.9-3.5c3.7-3.4 4.6-4 4.6-3.3zm-9 7.1c0 .3-2.8 2.6-6.2 5.2-3.5 2.6-5.6 4-4.8 3.1 1.4-1.4 10.2-8.5 10.8-8.6.1-.1.2.1.2.3zm-13.1 10.9c-.9.7-80.5 64.3-82.4 65.9-1.1.9-30.3 24.3-65 52-50 40-198.6 158.9-205.5 164.5-.8.6-8.9 7.1-18 14.4-9.1 7.2-17.6 14.1-19 15.3-1.4 1.1-6.4 5.1-11.2 8.8-4.7 3.8-9.2 7.4-10 8.1-.7.7-5.6 4.6-10.8 8.7-5.2 4-9.7 7.6-10 8-.3.3-2.5 2.1-5 4s-5.2 4.1-6 4.7c-.8.7-9.1 7.4-18.5 14.9-9.3 7.4-17.9 14.3-19 15.2-1.1.9-4 3.3-6.5 5.2-4.6 3.6-6.9 5.4-10 8-.9.8-3 2.5-4.6 3.7-3.3 2.5-105.8 84.5-108.9 87.1-1.1.9-11.6 9.3-23.3 18.7-11.7 9.3-38.7 30.9-60 48l-38.7 31 .1 15c.1 14.9 1.2 46.9 1.9 57.5.1 3 .6 12 1 19.9.4 7.9.8 15.2 1 16.1.2.9.6 6.3.9 12.1.4 5.7.9 12.2 1.1 14.4.2 2.2.7 7 1 10.7 1 13.1 1.6 20.3 2 22.8.2 1.4.7 6.1 1 10.5.4 4.4.8 8.7 1 9.5.2.8.6 4.9 1 9s.8 8.2 1 9c.2.8.6 4.4 1 8 .4 3.6.8 7.2 1 8 .2.8.6 4.4 1 8 .4 3.6.9 7.2 1 8.1.2.9.6 4 1 7 .3 3 .8 6.5 1 7.9.6 3.5 2.5 16.7 3.1 21.5.3 2.2 1.2 7.8 1.9 12.5.8 4.7 1.7 10.3 2 12.5.4 2.2.8 4.7 1 5.5.2.8.7 3.5 1.1 6 1.2 8.4 4.9 30 5.8 34 .3 1.4.8 3.8 1.1 5.5 1.6 8.8 2.5 13.3 3 15.5.2 1.4.9 4.7 1.5 7.5.5 2.7 1.2 6.1 1.4 7.4.3 1.4 1.5 7 2.6 12.5 2 9.5 7.6 34.6 12 53.6 1 4.7 3.1 13 4.5 18.5 3.2 12.2 3 11.3 3.9 15.5 1.9 8.5 16.2 59.8 23.1 83 8.6 28.8 25.2 79.1 34.4 104.5 8.4 23 13.1 35.6 14.1 38 .5 1.1 4.3 10.5 8.3 21 14.7 37.4 32.1 77.7 51 118 14.6 31.2 48.3 97 59.3 115.8 1.9 3.2 3.4 6 3.4 6.2 0 .2 2 3.8 4.5 7.9 2.5 4.2 4.5 7.8 4.5 8 0 1.3 30.9 52.7 47.8 79.6 11.7 18.5 43.2 66.2 48.1 72.6.9 1.2 2.3 3.2 3.1 4.4 9.1 13.4 48.1 66.3 60.9 82.5 19.2 24.4 45.3 56.3 61 74.5 47.4 55.2 109.6 119.6 158.1 164 1.9 1.8 5.8 5.3 8.5 7.9 5.2 4.8 19.5 17.6 25.4 22.7 1.8 1.6 4.6 4 6.1 5.4 12.7 11.5 47.3 40.5 77 64.3.8.7 7.6 5.9 15 11.7 7.4 5.7 13.7 10.7 14 11 .7.8 12.5 9.5 33.5 24.8 9.9 7.3 18.5 13.5 19 14 1.1.9 20.1 14.1 32 22.4 10.7 7.4 45.5 30.5 53 35.2 3.3 2 10.5 6.7 16 10.2 5.5 3.6 10.7 6.8 11.5 7.1.8.4 2.9 1.6 4.5 2.7 1.7 1.2 3.9 2.6 5 3.3 43.4 26.2 82.7 48.5 120 67.9 26 13.6 82.9 41.4 84.6 41.4.5 0 .9 1.2 1 2.7 0 1.6.2 4.3.3 6 .5 6.2 2.1 6.7-30.9-9-13.8-6.5-66.6-33-75-37.7-2.7-1.5-8.6-4.6-13-7-27.5-14.7-87.7-49.6-104.5-60.5-1.9-1.3-10.5-6.7-19-12-15.7-10-56.1-36.5-57-37.5-.3-.3-3.2-2.3-6.5-4.5-23.8-15.9-98.7-71.2-109-80.4-1.7-1.5-3.8-3.2-4.7-3.7-.8-.5-3.5-2.5-5.9-4.5-2.4-2-8.2-6.7-12.9-10.5-4.7-3.7-8.7-7-9-7.4-.3-.3-3-2.5-6-5-6.1-4.9-39.2-33.1-40-33.9-.3-.4-2.3-2.1-4.5-4-3.4-2.9-12.9-11.3-22.1-19.6-6.3-5.7-22.9-21-30.9-28.5-14.4-13.6-78.1-77.4-89.5-89.9-5.8-6.2-12.1-13.1-14.1-15.2-2-2.1-6.5-7.1-10-11-3.5-4-6.9-7.7-7.5-8.3-12.7-13.1-55.2-64-85-101.6-20.9-26.5-61.7-82.5-81-111.5-1.9-2.8-5.7-8.4-8.4-12.5-9-13.3-32.6-50.1-36.5-56.8-.5-.9-3.5-5.8-6.5-10.7-3-5-5.9-9.8-6.5-10.8-1.3-2.2-12.9-21.8-16.5-27.7-2.6-4.2-14.1-24.6-19.7-34.8-1.4-2.6-3.3-6.1-4.3-7.7-1.8-3.2-8.7-16-18.2-34-6.7-12.7-32.8-65.2-38.3-77-6.1-13-23.5-51.7-23.5-52.1 0-.2-1.1-2.7-2.4-5.6-6.7-14.4-24.1-57.3-35.1-86.3-26.7-70.4-53.4-155.1-70-222.5-.2-.8-1.5-6-2.9-11.5-3.6-14.4-8.4-34.6-8.9-37.5-.3-1.4-1.2-5.5-2.1-9.1-.8-3.7-1.7-7.8-2-9-.3-1.3-.7-3.3-1-4.4-1-4.6-11.8-58.2-12.1-60.6-.2-1.4-1.3-7.5-2.3-13.5-2.4-13.1-3.3-17.9-3.9-21.9-.6-4.4-3.3-20.6-3.9-23.5-.2-1.4-.7-4.5-.9-7-.3-2.5-.9-7-1.5-10-.9-5.2-1.2-7.8-2.5-18.3-.3-2.3-.8-5.3-1-6.7-.2-1.4-.7-4.8-1-7.5-.3-2.8-.8-6.1-1-7.5-.5-3.5-1.3-10.4-2-17.5-.3-3.3-.8-7.1-1-8.5-.7-3.8-1.3-9.8-2-17.5-.3-3.9-.8-8.1-1-9.5-.2-1.4-.7-5.9-1-10-.3-4.1-.7-8.4-.9-9.5-.2-1.1-.7-7-1.1-13-.4-6.1-.8-11.7-1-12.5-.1-.8-.6-6.5-1-12.5-.3-6.1-.8-12.6-1-14.5-.1-1.9-.6-10.5-1-19s-.8-17.7-1-20.3c-1.1-14.2-2.1-75.4-1.3-76.2.3-.4 84.5-65.7 91.2-70.8 4.9-3.7 19-14.7 20.6-16 .8-.7 18.6-14.5 39.5-30.7s50.4-39 65.5-50.8c15.1-11.7 31.7-24.5 36.8-28.5 5.1-4 10.2-7.9 11.2-8.7 1-.8 4-3.2 6.7-5.2 11.9-9.3 22-17.1 23.8-18.6 1.1-1 3.6-2.8 5.5-4.2 1.9-1.3 4-2.9 4.6-3.5.6-.5 4.4-3.6 8.5-6.7 25-19.3 162.8-126.2 166.4-129.1 2.2-1.7 30.1-23.4 36.4-28.2 2.5-2 54.7-42.4 60.6-47.1 1.7-1.2 9.3-7.2 17-13.1 7.7-5.9 16.3-12.6 19.1-14.8 2.8-2.2 6.4-5 8-6.2 1.6-1.2 7.9-6.1 13.9-10.8 6.1-4.8 13.5-10.5 16.5-12.8 3-2.2 5.7-4.3 6-4.6.3-.3 3.2-2.6 6.5-5.1 3.3-2.5 6.2-4.7 6.5-5 .3-.3 13.6-10.7 29.5-23 16-12.3 32.8-25.4 37.5-29.1 4.7-3.7 8.7-6.6 8.9-6.3.2.2.2.5 0 .7z"/></svg>