<svg xmlns="http://www.w3.org/2000/svg" xmlns:xlink="http://www.w3.org/1999/xlink" viewBox="0 0 682.42 468.5"><defs><clipPath id="clip-path" transform="translate(27.21 -29.82)"><polygon points="42.08 194.71 70.63 423.68 440.42 443.56 457.86 216.8 42.08 194.71" style="fill:#7d564f"/></clipPath><clipPath id="clip-path-2" transform="translate(27.21 -29.82)"><polygon points="479.95 214.79 462.51 441.55 581.02 397.57 604.48 184.66 479.95 214.79" style="fill:#7d564f"/></clipPath><clipPath id="clip-path-3" transform="translate(27.21 -29.82)"><path d="M469.71,197.79S37.25,176.72,32.43,179.13c0,0,24.12,251.15,27.74,254.76s388.5,24.68,390.91,23.48,140.29-54.8,140.29-54.8,19.28-230.08,20.48-234.9S469.71,197.79,469.71,197.79ZM429.4,429.66S83.05,412.21,83.05,408.59,58.93,211,61.34,209.83l383.07,15.66Zm147-44L474,423.64s11.4-198.15,15-200.56S591.37,197.79,591.37,199C591.37,205,576.36,385.71,576.36,385.71Z" style="fill:#ffc24d"/></clipPath><clipPath id="clip-path-4" transform="translate(27.21 -29.82)"><path d="M54.11,167.67,467.9,198.72,598.45,168.6s1.35-117.22-52.85-122c-42-3.73-377-11.4-377-11.4S68.17,87.33,54.11,167.67Z" style="fill:#7d564f"/></clipPath><clipPath id="clip-path-5" transform="translate(27.21 -29.82)"><path d="M537.16,41.74c-71.07-3-93.37,125.93-93.37,125.93S96.27,150.81,80.61,150.81C92.66,56.85,189,35.16,189,35.16S156.51,8.66,84.23,73.71c-42,37.76-49.39,100-50.6,104.8l436.06,21s142.93-29.44,144.13-31.85C616,122.88,603.37,44.5,537.16,41.74ZM492.59,166.47C500,130.23,515.21,67,543.19,62.22c42.16-7.23,44.57,86.18,44.57,86.18S511.87,162.85,492.59,166.47Z" style="fill:#ffd34d"/></clipPath><clipPath id="clip-path-6" transform="translate(27.21 -29.82)"><path d="M26.44,173.15c-2.9,1.93-.69,41,1.36,43,1.58,1.58,26,2.76,38.25,2.58,3.63,0,8.26-2.95,8.88-3.26,2.73-1.37,1.37-42.35-.68-43.71S30.53,170.42,26.44,173.15Z" style="fill:#ffad3a"/></clipPath><clipPath id="clip-path-7" transform="translate(27.21 -29.82)"><path d="M431.47,187.5c-2.89,1-6.14,43-4.09,45.08s42,4.5,44.39,4.09c4.1-.68,30.74-9.56,30.74-9.56l3.41-40.3s-3.65-2.95-6.92-3.09-24.8,2.61-24.8,2.61-22.84-1.47-35.21-1.57C434.9,184.73,432,187.33,431.47,187.5Z" style="fill:#ffad3a"/></clipPath><clipPath id="clip-path-8" transform="translate(27.21 -29.82)"><path d="M580.24,167.24c-1,.49-1.34,31.89-.65,33.94.21.64,6.68,2.28,9,2.77s25.8-2.69,26.26-4.57c.69-2.73,4.34-33.87,2.29-35.24-1.44-1-5.88-1.63-12.56-.81C602.19,163.61,580.24,167.24,580.24,167.24Z" style="fill:#ffad3a"/></clipPath></defs><title>CloseTres</title><g style="isolation:isolate"><g id="Layer_1" data-name="Layer 1"><polygon points="69.29 164.89 97.83 393.86 467.63 413.74 485.06 186.98 69.29 164.89" style="fill:#7d564f"/><g style="clip-path:url(#clip-path)"><path d="M20.54,242.19c175.5-4.11,371.74-.19,545.85,22.18-180.54,10.58-394.43-7.7-581,5.11-2.62,2-1.87,6.43.62,8.58s6,2.63,9.22,3c182,21.23,366.39,18.22,547.82,43.85-164.64,3.61-329.22-21.31-493.68-12.59-19.26,1-38.92,2.6-56.64,10.23-2.66,1.14-5.59,2.82-6.1,5.67-.68,3.84,3.37,6.74,7,8.28C6.17,342,20,343.86,33.67,345.45c152.1,17.78,306.06,4,459,11.25,15.76.75,31.66,1.74,46.83,6.08-2,5-7.76,7.28-12.95,8.8C482,384.7,434.64,384.38,388.13,384c-113-1-226.46-2-338.52,12.67-19.29,2.52-38.64,5.51-58.1,5-1.86-.05-3.9-.2-5.27-1.47s-1.64-2.91-2-4.56a622.51,622.51,0,0,1-10-162.4" transform="translate(27.21 -29.82)" style="fill:#c2aab0;opacity:0.62;mix-blend-mode:soft-light"/><path d="M96.7,420.94S76.25,236.16,74.84,233.34s133.23.31,136,3.13-3.87,39.82,5.21,41.64c5.78,1.15,86.78,7.12,94.27,4.62,8.67-2.89,8.19-39,11.56-47.42,1.16-2.89,135.15,5.79,135.15,5.79l3.52-30.33-397-11.28-12,6.35L71.31,416Z" transform="translate(27.21 -29.82)" style="fill:#495a7d;opacity:0.1;mix-blend-mode:multiply"/></g><polygon points="507.15 184.97 489.72 411.73 608.23 367.75 631.69 154.84 507.15 184.97" style="fill:#7d564f"/><g style="clip-path:url(#clip-path-2)"><path d="M457.69,260.21c57.86-8.48,113-33.7,171.4-35.79a714.35,714.35,0,0,1-142.5,45.67c-10.22,2.12-20.66,4.08-29.9,8.94s-17.28,13.19-19,23.49a4.08,4.08,0,0,0,.27,2.85c.89,1.43,3,1.38,4.63,1.14,65.9-9.2,129.34-31.76,195.16-41.56a3.28,3.28,0,0,1,4.48,2.92q3.54,11.7,7.07,23.4A10.05,10.05,0,0,1,650,296c-.74,3.92-5.48,5.4-9.4,6.13Q554.91,318,470.45,339.6c-6.88,1.76-14,3.67-19.43,8.23,65.19-1,128.69-24.84,193.88-23.44-19.45,13.73-44.22,16.72-67.8,20.08a1082.65,1082.65,0,0,0-127.57,26.07c-1.23.33-2.61.64-3.72,0-1.34-.77-1.65-2.55-1.8-4.09a834.65,834.65,0,0,1-3.84-101.36" transform="translate(27.21 -29.82)" style="fill:#c2aab0;opacity:0.62;mix-blend-mode:soft-light"/><polygon points="507.56 173.2 491.34 408.04 616.16 364.32 630.97 160.5 507.56 173.2" style="fill:#495a7d;opacity:0.1;mix-blend-mode:multiply"/></g><path d="M469.71,197.79S37.25,176.72,32.43,179.13c0,0,24.12,251.15,27.74,254.76s388.5,24.68,390.91,23.48,140.29-54.8,140.29-54.8,19.28-230.08,20.48-234.9S469.71,197.79,469.71,197.79ZM429.4,429.66S83.05,412.21,83.05,408.59,58.93,211,61.34,209.83l383.07,15.66Zm147-44L474,423.64s11.4-198.15,15-200.56S591.37,197.79,591.37,199C591.37,205,576.36,385.71,576.36,385.71Z" transform="translate(27.21 -29.82)" style="fill:#ffc24d"/><g style="clip-path:url(#clip-path-3)"><polygon points="496.91 154.72 476.43 468.5 658.33 404.07 682.42 112.55 496.91 154.72" style="fill:#495a7d;opacity:0.1;mix-blend-mode:multiply"/><polygon points="59.73 194.35 83.7 195.76 104.16 385.48 456.33 404.94 467.36 211.28 493.45 212.69 523.78 204.93 520.96 178.13 458.19 191.53 47.74 174.61 59.73 194.35" style="fill:#495a7d;opacity:0.1;mix-blend-mode:multiply"/><polygon points="647.7 173.16 622.23 178.95 608.91 353.78 595.6 357.26 612.38 166.22 648.86 162.75 647.7 173.16" style="fill:#495a7d;opacity:0.1;mix-blend-mode:multiply"/></g><path d="M54.11,167.67,467.9,198.72,598.45,168.6s1.35-117.22-52.85-122c-42-3.73-377-11.4-377-11.4S68.17,87.33,54.11,167.67Z" transform="translate(27.21 -29.82)" style="fill:#7d564f"/><g style="clip-path:url(#clip-path-4)"><path d="M58,131.33l376.72,12.74c12.75.43,25.55.86,38.23-.48,13.16-1.38,26-4.65,38.88-7.8q69.46-17,139.9-29.81l-2.85-8.64a908.76,908.76,0,0,0-115.59,18.79c-17.87,4.1-35.74,8.76-54.05,9.65-13.57.66-27.14-.77-40.67-2.07q-81.84-7.84-164.12-9.36c-69.69-1.27-139.56.87-209-5.37-8.82-.79-20.5-5.27-18.8-14,1.33-6.75,9.87-8.77,16.73-9.33C208,74,353.51,83.74,498.14,95.83L610.29,81.76c-18.66-5.09-38.38-1-57.63.87-22,2.11-44.27,1.15-66.41.19L65.12,64.5c-.41-8.07,10.5-10.86,18.59-10.87q191.48-.35,382.76,10.77c16.41,1,33.46,1.88,48.71-4.25-.22-4.31-5.77-5.8-10.07-6.11A3254.28,3254.28,0,0,0,65.92,52.77c-5.08.33-10.39.74-14.69,3.45-4,2.53-6.66,6.74-9,10.89a183.71,183.71,0,0,0-21.12,61.23" transform="translate(27.21 -29.82)" style="fill:#c2aab0;opacity:0.62;mix-blend-mode:soft-light"/><path d="M541.71,52.8c-2.09.36-45.14,9.87-55,82.51s-1.41,45.14-1.41,45.14l117.77-23.27s-2.82-39.5-8.46-53.6S574.15,47.16,541.71,52.8Z" transform="translate(27.21 -29.82)" style="fill:#495a7d;opacity:0.1;mix-blend-mode:multiply"/><path d="M211.65,30.94S104.46,49.27,98.11,159.29C60,162.82,65.67,136.72,65.67,136.72S74.13,82.42,122.09,57,211.65,30.94,211.65,30.94Z" transform="translate(27.21 -29.82)" style="fill:#495a7d;opacity:0.1;mix-blend-mode:multiply"/></g><path d="M537.16,41.74c-71.07-3-93.37,125.93-93.37,125.93S96.27,150.81,80.61,150.81C92.66,56.85,189,35.16,189,35.16S156.51,8.66,84.23,73.71c-42,37.76-49.39,100-50.6,104.8l436.06,21s142.93-29.44,144.13-31.85C616,122.88,603.37,44.5,537.16,41.74ZM492.59,166.47C500,130.23,515.21,67,543.19,62.22c42.16-7.23,44.57,86.18,44.57,86.18S511.87,162.85,492.59,166.47Z" transform="translate(27.21 -29.82)" style="fill:#ffd34d"/><g style="clip-path:url(#clip-path-5)"><path d="M466.09,221.88S474.52,40,556.44,43.59s78.3,147,78.3,147Z" transform="translate(27.21 -29.82)" style="fill:#495a7d;opacity:0.1;mix-blend-mode:multiply"/><path d="M26.44,173.15c1.15,1,447.57,21,447.57,21l150.61-33.47,4.32,5.94L630,188.19l-163,27L21.65,190.89l6.48-17.81" transform="translate(27.21 -29.82)" style="fill:#495a7d;opacity:0.1;mix-blend-mode:multiply"/><path d="M196.84,30.23S79.07,44.34,68.49,152.94c22.57-2.11,36-3.52,36-3.52Z" transform="translate(27.21 -29.82)" style="fill:#495a7d;opacity:0.1;mix-blend-mode:multiply"/><path d="M579.08,149.42,596,146.6S591.07,58.44,545.94,62C538.89,97.94,579.08,149.42,579.08,149.42Z" transform="translate(27.21 -29.82)" style="fill:#495a7d;opacity:0.1;mix-blend-mode:multiply"/></g><path d="M26.44,173.15c-2.9,1.93-.69,41,1.36,43,1.58,1.58,26,2.76,38.25,2.58,3.63,0,8.26-2.95,8.88-3.26,2.73-1.37,1.37-42.35-.68-43.71S30.53,170.42,26.44,173.15Z" transform="translate(27.21 -29.82)" style="fill:#ffad3a"/><g style="clip-path:url(#clip-path-6)"><path d="M63.87,227c0,1.45.18,3.12,1.36,4a4,4,0,0,0,3.24.26c5-1.29,8.8-5.76,10.62-10.65s2-10.21,2.2-15.42c.23-6.68,3.27-66-13.19-48.42-6.75,7.2-5.35,21.77-5.46,30.74C62.48,200,63.7,214.51,63.87,227Z" transform="translate(27.21 -29.82)" style="fill:#495a7d;opacity:0.1;mix-blend-mode:multiply"/></g><path d="M431.47,187.5c-2.89,1-6.14,43-4.09,45.08s42,4.5,44.39,4.09c4.1-.68,30.74-9.56,30.74-9.56l3.41-40.3s-3.65-2.95-6.92-3.09-24.8,2.61-24.8,2.61-22.84-1.47-35.21-1.57C434.9,184.73,432,187.33,431.47,187.5Z" transform="translate(27.21 -29.82)" style="fill:#ffad3a"/><g style="clip-path:url(#clip-path-7)"><polygon points="495.04 223.07 500.92 161.73 538.11 156.84 539.96 214.37 495.04 223.07" style="fill:#495a7d;opacity:0.1;mix-blend-mode:multiply"/></g><path d="M580.24,167.24c-1,.49-1.34,31.89-.65,33.94.21.64,6.68,2.28,9,2.77s25.8-2.69,26.26-4.57c.69-2.73,4.34-33.87,2.29-35.24-1.44-1-5.88-1.63-12.56-.81C602.19,163.61,580.24,167.24,580.24,167.24Z" transform="translate(27.21 -29.82)" style="fill:#ffad3a"/><g style="clip-path:url(#clip-path-8)"><path d="M588.63,209.43c.15,3.37-.29,7.43,2.55,9.24a9.23,9.23,0,0,0,4.41,1.05c4.49.29,9,.53,13.45-.38s8.7-3.14,11.23-6.86c1.72-2.53,2.51-5.57,3.27-8.54,3.44-13.51,8.22-22.53,6.62-36.37-.67-5.77-38.83,1.3-38.83,1.3a122.69,122.69,0,0,0-1.79,16C589.21,194.55,588.23,200.52,588.63,209.43Z" transform="translate(27.21 -29.82)" style="fill:#495a7d;opacity:0.1;mix-blend-mode:multiply"/></g><path d="M36.17,200.58a11.41,11.41,0,0,0,8.25,4.17A9.82,9.82,0,0,0,52,202.54a10.86,10.86,0,0,0,2.72-5.1c.76-2.81.94-6-.57-8.49a9.86,9.86,0,0,0-4.25-3.59,10.48,10.48,0,0,0-5.07-1.19C37.4,184.56,31.36,194.11,36.17,200.58Z" transform="translate(27.21 -29.82)" style="fill:#ffd34d"/><path d="M440.27,216.8a11.43,11.43,0,0,0,8.26,4.17,9.79,9.79,0,0,0,7.61-2.21,10.69,10.69,0,0,0,2.72-5.1c.77-2.81.95-6-.56-8.49a9.94,9.94,0,0,0-4.26-3.59,10.48,10.48,0,0,0-5.07-1.19C441.51,200.78,435.47,210.33,440.27,216.8Z" transform="translate(27.21 -29.82)" style="fill:#ffd34d"/><path d="M482.1,216.8A7.76,7.76,0,0,0,488,221a5.78,5.78,0,0,0,5.47-2.21,12.64,12.64,0,0,0,1.95-5.1c.55-2.81.68-6-.41-8.49a8.37,8.37,0,0,0-3.05-3.59,5.86,5.86,0,0,0-3.64-1.19C483,200.78,478.65,210.33,482.1,216.8Z" transform="translate(27.21 -29.82)" style="fill:#ffd34d"/><path d="M598.94,188.86a6.3,6.3,0,0,0,4.81,3.38,4.69,4.69,0,0,0,4.44-1.79,10.21,10.21,0,0,0,1.59-4.14,12.11,12.11,0,0,0-.33-6.9A6.77,6.77,0,0,0,607,176.5a4.77,4.77,0,0,0-3-1C599.66,175.85,596.14,183.6,598.94,188.86Z" transform="translate(27.21 -29.82)" style="fill:#ffd34d"/><path d="M45.9,241.13a4.31,4.31,0,0,0,5.64-2.41,6,6,0,0,0,.27-2.06,4.08,4.08,0,0,0-.8-2.57,4.76,4.76,0,0,0-1.28-.94,5.06,5.06,0,0,0-1.77-.69C43.24,231.89,42,239.31,45.9,241.13Z" transform="translate(27.21 -29.82)" style="fill:#495a7d;opacity:0.1;mix-blend-mode:multiply"/><path d="M451.59,255.41a4.3,4.3,0,0,0,5.64-2.41,5.73,5.73,0,0,0,.27-2.06,4.08,4.08,0,0,0-.8-2.57,4.76,4.76,0,0,0-1.28-.94,5.06,5.06,0,0,0-1.77-.69C448.93,246.17,447.67,253.59,451.59,255.41Z" transform="translate(27.21 -29.82)" style="fill:#495a7d;opacity:0.1;mix-blend-mode:multiply"/><path d="M450.53,278.15a4.32,4.32,0,0,0,5.65-2.41,5.9,5.9,0,0,0,.26-2.05,4,4,0,0,0-.8-2.58,4.61,4.61,0,0,0-1.28-.94,5,5,0,0,0-1.77-.68C447.87,268.92,446.62,276.34,450.53,278.15Z" transform="translate(27.21 -29.82)" style="fill:#495a7d;opacity:0.1;mix-blend-mode:multiply"/><path d="M449,299.84a4.3,4.3,0,0,0,5.64-2.41,6,6,0,0,0,.26-2.06,4,4,0,0,0-.79-2.57,4.76,4.76,0,0,0-1.28-.94,4.84,4.84,0,0,0-1.78-.68C446.28,290.6,445,298,449,299.84Z" transform="translate(27.21 -29.82)" style="fill:#495a7d;opacity:0.1;mix-blend-mode:multiply"/><path d="M446.3,321a4.3,4.3,0,0,0,5.64-2.4,5.73,5.73,0,0,0,.27-2.06,4.06,4.06,0,0,0-.8-2.57,4.42,4.42,0,0,0-1.28-.94,5.06,5.06,0,0,0-1.77-.69C443.64,311.76,442.38,319.18,446.3,321Z" transform="translate(27.21 -29.82)" style="fill:#495a7d;opacity:0.1;mix-blend-mode:multiply"/><path d="M445.77,344.27a4.32,4.32,0,0,0,5.65-2.41,6,6,0,0,0,.26-2.06,4,4,0,0,0-.8-2.57,4.61,4.61,0,0,0-1.28-.94,4.86,4.86,0,0,0-1.77-.68C443.11,335,441.86,342.45,445.77,344.27Z" transform="translate(27.21 -29.82)" style="fill:#495a7d;opacity:0.1;mix-blend-mode:multiply"/><path d="M443.13,367.54a4.3,4.3,0,0,0,5.64-2.41,5.67,5.67,0,0,0,.26-2.05,4,4,0,0,0-.79-2.58,4.76,4.76,0,0,0-1.28-.94,5,5,0,0,0-1.78-.68C440.47,358.31,439.21,365.73,443.13,367.54Z" transform="translate(27.21 -29.82)" style="fill:#495a7d;opacity:0.1;mix-blend-mode:multiply"/><path d="M441.54,394.52a4.31,4.31,0,0,0,5.64-2.41,5.73,5.73,0,0,0,.27-2.06,4.08,4.08,0,0,0-.8-2.57,4.76,4.76,0,0,0-1.28-.94,5.06,5.06,0,0,0-1.77-.69C438.88,385.28,437.62,392.7,441.54,394.52Z" transform="translate(27.21 -29.82)" style="fill:#495a7d;opacity:0.1;mix-blend-mode:multiply"/><path d="M439.42,421a4.3,4.3,0,0,0,5.65-2.41,5.9,5.9,0,0,0,.26-2.05,4,4,0,0,0-.8-2.58,4.26,4.26,0,0,0-1.28-.93,5,5,0,0,0-1.77-.69C436.76,411.73,435.51,419.15,439.42,421Z" transform="translate(27.21 -29.82)" style="fill:#495a7d;opacity:0.1;mix-blend-mode:multiply"/><path d="M463.76,417.79a4.3,4.3,0,0,0,5.64-2.41,5.93,5.93,0,0,0,.26-2.05,4,4,0,0,0-.79-2.58,4.76,4.76,0,0,0-1.28-.94,4.84,4.84,0,0,0-1.78-.68C461.09,408.56,459.84,416,463.76,417.79Z" transform="translate(27.21 -29.82)" style="fill:#495a7d;opacity:0.1;mix-blend-mode:multiply"/><path d="M464.81,390.81a4.31,4.31,0,0,0,5.65-2.4,6,6,0,0,0,.26-2.06,4,4,0,0,0-.8-2.58,4.38,4.38,0,0,0-1.28-.93,5,5,0,0,0-1.77-.69C462.15,381.58,460.9,389,464.81,390.81Z" transform="translate(27.21 -29.82)" style="fill:#495a7d;opacity:0.1;mix-blend-mode:multiply"/><path d="M466.4,368.07a4.3,4.3,0,0,0,5.64-2.41,5.71,5.71,0,0,0,.27-2.05,4.08,4.08,0,0,0-.8-2.58,4.76,4.76,0,0,0-1.28-.94,4.86,4.86,0,0,0-1.77-.68C463.74,358.84,462.48,366.25,466.4,368.07Z" transform="translate(27.21 -29.82)" style="fill:#495a7d;opacity:0.1;mix-blend-mode:multiply"/><path d="M468,343.74a4.3,4.3,0,0,0,5.64-2.41,5.73,5.73,0,0,0,.26-2.06,4,4,0,0,0-.79-2.57,4.76,4.76,0,0,0-1.28-.94,4.84,4.84,0,0,0-1.78-.68C465.33,334.51,464.07,341.92,468,343.74Z" transform="translate(27.21 -29.82)" style="fill:#495a7d;opacity:0.1;mix-blend-mode:multiply"/><path d="M469.57,321.52a4.31,4.31,0,0,0,5.65-2.4,6,6,0,0,0,.26-2.06,4,4,0,0,0-.8-2.58,4.38,4.38,0,0,0-1.28-.93,5,5,0,0,0-1.77-.69C466.91,312.29,465.66,319.71,469.57,321.52Z" transform="translate(27.21 -29.82)" style="fill:#495a7d;opacity:0.1;mix-blend-mode:multiply"/><path d="M471.16,297.19a4.3,4.3,0,0,0,5.64-2.41,5.68,5.68,0,0,0,.27-2,4.1,4.1,0,0,0-.8-2.58,4.52,4.52,0,0,0-1.28-.93,4.88,4.88,0,0,0-1.77-.69C468.5,288,467.24,295.38,471.16,297.19Z" transform="translate(27.21 -29.82)" style="fill:#495a7d;opacity:0.1;mix-blend-mode:multiply"/><path d="M473.81,274.45a4.3,4.3,0,0,0,5.64-2.41,6,6,0,0,0,.26-2.06,4,4,0,0,0-.79-2.57,4.76,4.76,0,0,0-1.28-.94,4.84,4.84,0,0,0-1.78-.68C471.14,265.22,469.89,272.63,473.81,274.45Z" transform="translate(27.21 -29.82)" style="fill:#495a7d;opacity:0.1;mix-blend-mode:multiply"/><path d="M475.39,253.29a4.32,4.32,0,0,0,5.65-2.41,5.9,5.9,0,0,0,.26-2,4,4,0,0,0-.8-2.58,4.61,4.61,0,0,0-1.28-.94,5,5,0,0,0-1.77-.68C472.73,244.06,471.48,251.48,475.39,253.29Z" transform="translate(27.21 -29.82)" style="fill:#495a7d;opacity:0.1;mix-blend-mode:multiply"/><path d="M600.16,218.78a3.35,3.35,0,0,0,4.45-2,4.82,4.82,0,0,0,.21-1.69,3.41,3.41,0,0,0-.63-2.13,3.47,3.47,0,0,0-1-.77,3.87,3.87,0,0,0-1.4-.57C598.06,211.16,597.07,217.28,600.16,218.78Z" transform="translate(27.21 -29.82)" style="fill:#495a7d;opacity:0.1;mix-blend-mode:multiply"/><path d="M598,240.47a3.36,3.36,0,0,0,4.46-2,5.09,5.09,0,0,0,.21-1.7,3.47,3.47,0,0,0-.63-2.12,4,4,0,0,0-1-.78,3.85,3.85,0,0,0-1.4-.56C595.94,232.85,595,239,598,240.47Z" transform="translate(27.21 -29.82)" style="fill:#495a7d;opacity:0.1;mix-blend-mode:multiply"/><path d="M596.46,261.09a3.34,3.34,0,0,0,4.45-2,5.12,5.12,0,0,0,.21-1.7,3.39,3.39,0,0,0-.63-2.12,3.69,3.69,0,0,0-1-.78,3.85,3.85,0,0,0-1.4-.56C594.36,253.48,593.37,259.6,596.46,261.09Z" transform="translate(27.21 -29.82)" style="fill:#495a7d;opacity:0.1;mix-blend-mode:multiply"/><path d="M594.87,281.72a3.36,3.36,0,0,0,4.46-2,5.15,5.15,0,0,0,.2-1.7,3.37,3.37,0,0,0-.63-2.13,3.47,3.47,0,0,0-1-.77,3.68,3.68,0,0,0-1.4-.56C592.77,274.11,591.78,280.23,594.87,281.72Z" transform="translate(27.21 -29.82)" style="fill:#495a7d;opacity:0.1;mix-blend-mode:multiply"/><path d="M593.28,302.35a3.36,3.36,0,0,0,4.46-2,5.06,5.06,0,0,0,.21-1.69,3.48,3.48,0,0,0-.63-2.13,3.76,3.76,0,0,0-1-.77,3.87,3.87,0,0,0-1.4-.57C591.18,294.73,590.19,300.85,593.28,302.35Z" transform="translate(27.21 -29.82)" style="fill:#495a7d;opacity:0.1;mix-blend-mode:multiply"/><path d="M591.7,323a3.35,3.35,0,0,0,4.45-2,5.06,5.06,0,0,0,.21-1.69,3.41,3.41,0,0,0-.63-2.13,3.47,3.47,0,0,0-1-.77,3.87,3.87,0,0,0-1.4-.57C589.6,315.36,588.61,321.48,591.7,323Z" transform="translate(27.21 -29.82)" style="fill:#495a7d;opacity:0.1;mix-blend-mode:multiply"/><path d="M590.11,343.61a3.36,3.36,0,0,0,4.46-2,5.09,5.09,0,0,0,.2-1.7,3.34,3.34,0,0,0-.63-2.12,3.47,3.47,0,0,0-1-.77,3.7,3.7,0,0,0-1.4-.57C588,336,587,342.11,590.11,343.61Z" transform="translate(27.21 -29.82)" style="fill:#495a7d;opacity:0.1;mix-blend-mode:multiply"/><path d="M588.52,364.24a3.36,3.36,0,0,0,4.46-2,5.09,5.09,0,0,0,.21-1.7,3.47,3.47,0,0,0-.63-2.12,4,4,0,0,0-1-.78,3.85,3.85,0,0,0-1.4-.56C586.42,356.62,585.43,362.74,588.52,364.24Z" transform="translate(27.21 -29.82)" style="fill:#495a7d;opacity:0.1;mix-blend-mode:multiply"/><path d="M48,262.92a4.31,4.31,0,0,0,5.65-2.41,5.9,5.9,0,0,0,.26-2.05,4,4,0,0,0-.8-2.58,4.61,4.61,0,0,0-1.28-.94,4.79,4.79,0,0,0-1.77-.68C45.33,253.69,44.08,261.11,48,262.92Z" transform="translate(27.21 -29.82)" style="fill:#495a7d;opacity:0.1;mix-blend-mode:multiply"/><path d="M50.85,284.71a4.3,4.3,0,0,0,5.64-2.4,5.73,5.73,0,0,0,.27-2.06,4,4,0,0,0-.8-2.57,4.42,4.42,0,0,0-1.28-.94,5.06,5.06,0,0,0-1.77-.69C48.19,275.48,46.94,282.9,50.85,284.71Z" transform="translate(27.21 -29.82)" style="fill:#495a7d;opacity:0.1;mix-blend-mode:multiply"/><path d="M52.69,306.25a4.31,4.31,0,0,0,5.65-2.4,6,6,0,0,0,.26-2.06,4,4,0,0,0-.8-2.57,4.42,4.42,0,0,0-1.28-.94,5.06,5.06,0,0,0-1.77-.69C50,297,48.78,304.44,52.69,306.25Z" transform="translate(27.21 -29.82)" style="fill:#495a7d;opacity:0.1;mix-blend-mode:multiply"/><path d="M55.29,329.32a4.31,4.31,0,0,0,5.65-2.41,5.93,5.93,0,0,0,.26-2.05,4,4,0,0,0-.8-2.58,4.46,4.46,0,0,0-1.28-.94,4.79,4.79,0,0,0-1.77-.68C52.63,320.09,51.38,327.51,55.29,329.32Z" transform="translate(27.21 -29.82)" style="fill:#495a7d;opacity:0.1;mix-blend-mode:multiply"/><path d="M56.88,351.53a4.3,4.3,0,0,0,5.64-2.4,5.73,5.73,0,0,0,.27-2.06,4,4,0,0,0-.8-2.57,4.42,4.42,0,0,0-1.28-.94,5.06,5.06,0,0,0-1.77-.69C54.22,342.3,53,349.72,56.88,351.53Z" transform="translate(27.21 -29.82)" style="fill:#495a7d;opacity:0.1;mix-blend-mode:multiply"/><path d="M59.53,374.28a4.3,4.3,0,0,0,5.64-2.41,5.7,5.7,0,0,0,.26-2.05,4,4,0,0,0-.79-2.58,4.76,4.76,0,0,0-1.28-.94,4.84,4.84,0,0,0-1.78-.68C56.86,365.05,55.61,372.46,59.53,374.28Z" transform="translate(27.21 -29.82)" style="fill:#495a7d;opacity:0.1;mix-blend-mode:multiply"/><path d="M62.7,397.55a4.3,4.3,0,0,0,5.64-2.41,5.91,5.91,0,0,0,.27-2.05,4.1,4.1,0,0,0-.8-2.58,4.52,4.52,0,0,0-1.28-.93,4.88,4.88,0,0,0-1.77-.69C60,388.32,58.78,395.74,62.7,397.55Z" transform="translate(27.21 -29.82)" style="fill:#495a7d;opacity:0.1;mix-blend-mode:multiply"/></g></g></svg>