<svg xmlns="http://www.w3.org/2000/svg" xmlns:xlink="http://www.w3.org/1999/xlink" viewBox="0 0 596.09 465.56"><defs><clipPath id="clip-path" transform="translate(-5.8 -7.96)"><path d="M357.28,74c-2.79.57-17.66,15.92,2.88,19,5.34,17.65,27,27.12,30.51,27S420.13,109,420.91,93.33c10.35,3.13,16.47-10.52,3.51-15.42C398.23,66.53,357.28,74,357.28,74Z" style="fill:#ffad3a"/></clipPath><clipPath id="clip-path-2" transform="translate(-5.8 -7.96)"><path d="M561.92,86.1s34,21.55,19.43,67.32c-13.19,41.4-50.85,43.41-50.85,43.41Z" style="fill:#7a5752"/></clipPath><clipPath id="clip-path-3" transform="translate(-5.8 -7.96)"><polygon points="158 189.28 209.71 65.27 553.59 74.78 514.36 207.2 158 189.28" style="fill:#7a5752"/></clipPath><clipPath id="clip-path-4" transform="translate(-5.8 -7.96)"><path d="M63.73,222.85s91.5-28.15,98.53-28.15,349.25,11.71,349.58,15.91S276.89,269.1,276.89,269.1Z" style="fill:#7d564f"/></clipPath><clipPath id="clip-path-5" transform="translate(-5.8 -7.96)"><polygon points="328.22 229.77 337.56 204 353.23 194.39 364.63 209.71 349.62 236.83 336.49 236.78 328.22 229.77" style="fill:#99daff"/></clipPath><clipPath id="clip-path-6" transform="translate(-5.8 -7.96)"><path d="M199,209.2a8.61,8.61,0,1,1-11.5,4A8.61,8.61,0,0,1,199,209.2Z" style="fill:#fff"/></clipPath><clipPath id="clip-path-7" transform="translate(-5.8 -7.96)"><circle cx="208.64" cy="218.23" r="8.62" transform="translate(-56.38 362.86) rotate(-74.91)" style="fill:#fff"/></clipPath><clipPath id="clip-path-8" transform="translate(-5.8 -7.96)"><path d="M226.32,221a8.61,8.61,0,1,1-11.76-3.17A8.61,8.61,0,0,1,226.32,221Z" style="fill:#fff"/></clipPath><clipPath id="clip-path-9" transform="translate(-5.8 -7.96)"><polygon points="61.18 229.83 84 412.86 379.6 428.74 393.53 247.49 61.18 229.83" style="fill:#7a5752"/></clipPath><clipPath id="clip-path-10" transform="translate(-5.8 -7.96)"><polygon points="411.19 245.88 397.26 427.14 491.99 391.99 510.74 221.8 411.19 245.88" style="fill:#7a5752"/></clipPath><clipPath id="clip-path-11" transform="translate(-5.8 -7.96)"><path d="M403,232.29S57.32,215.45,53.47,217.37c0,0,19.28,200.76,22.17,203.65s310.55,19.72,312.48,18.76S500.26,396,500.26,396s15.41-183.91,16.37-187.77S403,232.29,403,232.29ZM370.78,417.63S93.94,403.68,93.94,400.8,74.65,242.88,76.58,241.92l306.2,12.51ZM488.26,382.5l-81.85,30.32s9.11-158.39,12-160.31,81.85-20.22,81.85-19.26C500.26,238.06,488.26,382.5,488.26,382.5Z" style="fill:#ffc24d"/></clipPath><clipPath id="clip-path-12" transform="translate(-5.8 -7.96)"><path d="M48.68,212.6c-2.32,1.54-.55,32.75,1.09,34.39,1.26,1.27,20.75,2.21,30.57,2.07,2.91-.05,6.6-2.36,7.1-2.61,2.19-1.1,1.09-33.85-.54-34.95S52,210.41,48.68,212.6Z" style="fill:#ffad3a"/></clipPath><clipPath id="clip-path-13" transform="translate(-5.8 -7.96)"><path d="M372.45,224.06c-2.32.77-4.92,34.4-3.28,36s33.55,3.6,35.49,3.27c3.27-.54,24.57-7.64,24.57-7.64L432,223.52s-2.93-2.37-5.54-2.48-19.82,2.09-19.82,2.09-18.26-1.18-28.15-1.25C375.18,221.85,372.85,223.93,372.45,224.06Z" style="fill:#ffad3a"/></clipPath><clipPath id="clip-path-14" transform="translate(-5.8 -7.96)"><path d="M491.36,207.87c-.78.39-1.07,25.49-.52,27.13.17.51,5.34,1.82,7.17,2.21s20.62-2.15,21-3.65c.54-2.18,3.46-27.07,1.82-28.16-1.15-.77-4.69-1.31-10-.66C508.91,205,491.36,207.87,491.36,207.87Z" style="fill:#ffad3a"/></clipPath><clipPath id="clip-path-15" transform="translate(-5.8 -7.96)"><path d="M192.69,223.33a8.62,8.62,0,1,1-8.62-8.61A8.62,8.62,0,0,1,192.69,223.33Z" style="fill:#fff"/></clipPath><clipPath id="clip-path-16" transform="translate(-5.8 -7.96)"><path d="M181.94,228.2a8.61,8.61,0,1,1-11.51-4A8.62,8.62,0,0,1,181.94,228.2Z" style="fill:#fff"/></clipPath><clipPath id="clip-path-17" transform="translate(-5.8 -7.96)"><path d="M178.75,241.92a8.62,8.62,0,1,1-11.51-4A8.62,8.62,0,0,1,178.75,241.92Z" style="fill:#fff"/></clipPath></defs><title>OpenTres</title><g style="isolation:isolate"><g id="Layer_1" data-name="Layer 1"><path d="M357.28,74c-2.79.57-17.66,15.92,2.88,19,5.34,17.65,27,27.12,30.51,27S420.13,109,420.91,93.33c10.35,3.13,16.47-10.52,3.51-15.42C398.23,66.53,357.28,74,357.28,74Z" transform="translate(-5.8 -7.96)" style="fill:#ffad3a"/><g style="clip-path:url(#clip-path)"><path d="M340.84,80.8c25.54,5.27,44.17,4.65,72.09,5.93,7.84.36,27.39-1.38,35.19-2.24a2.66,2.66,0,0,0,2-.88c.52-.8.06-1.86-.48-2.64-3.79-5.41-11-7-17.47-8.1-36.33-6-73.84-8-109.8-.09" transform="translate(-5.8 -7.96)" style="fill:#495a7d;opacity:0.1;mix-blend-mode:multiply"/></g><path d="M350.05,76.75c-2.65-1.92.75-59.29,4.46-65.5,3.42-5.72,74.42-3.21,77.76,1.68s1.66,64-1.34,67S355.76,80.89,350.05,76.75Z" transform="translate(-5.8 -7.96)" style="fill:#ffad3a"/><path d="M356.78,71.62c-2.22-1.61.64-49.83,3.76-55.06,2.87-4.81,62.56-2.69,65.37,1.41s1.4,53.78-1.13,56.31S361.59,75.1,356.78,71.62Z" transform="translate(-5.8 -7.96)" style="fill:#495a7d;opacity:0.1;mix-blend-mode:multiply"/><path d="M383.46,95.52c2.41-4.18,8.76-5.61,12.46-2.52,3.1,2.6,3.65,7.44,2,11.15a9.44,9.44,0,0,1-4.71,4.94C385.57,112.38,380,101.55,383.46,95.52Z" transform="translate(-5.8 -7.96)" style="fill:#495a7d;opacity:0.1;mix-blend-mode:multiply"/><path d="M557,73.1s48.37,23,33,82.89c-13.95,54.25-73.28,52.22-73.28,52.22Z" transform="translate(-5.8 -7.96)" style="fill:#ffd34d"/><path d="M561.92,86.1s34,21.55,19.43,67.32c-13.19,41.4-50.85,43.41-50.85,43.41Z" transform="translate(-5.8 -7.96)" style="fill:#7a5752"/><g style="clip-path:url(#clip-path-2)"><rect x="513.94" y="47.04" width="82.16" height="176.3" style="fill:#495a7d;opacity:0.1;mix-blend-mode:multiply"/><path d="M573.1,77.35a1030.44,1030.44,0,0,0-35.78,147.89q23.38-77.85,43.41-156.67c2.29.24,2.45,3.52,1.94,5.77L550.39,216.53c17.35-45.58,28-93.37,38.64-141" transform="translate(-5.8 -7.96)" style="fill:#c2aab0;opacity:0.62;mix-blend-mode:soft-light"/></g><polygon points="152.21 181.32 203.91 57.31 547.79 66.81 508.56 199.23 152.21 181.32" style="fill:#7a5752"/><g style="clip-path:url(#clip-path-3)"><path d="M227.3,93.56C226,97.44,213,133.23,206,148.78s-14.78,32.15-13.74,31.89,8.56-3.37,9.07-4.15,30.6-74.15,30.34-75.45" transform="translate(-5.8 -7.96)" style="fill:#c2aab0;opacity:0.62;mix-blend-mode:soft-light"/><path d="M217.71,79.81,175.19,183s5.7,0,7-.78S221.6,85,221.6,85" transform="translate(-5.8 -7.96)" style="fill:#c2aab0;opacity:0.62;mix-blend-mode:soft-light"/><path d="M555.64,95.19c-3,4.64-9.45,5.14-15,5.15l-86.8.16c-42.48.07-85,.15-127.35-3.68-31.68-2.86-63.39-7.91-95.14-5.93,2.94,5.62,6.15,10.54,6.15,12.68,92.58,4.26,200,6.67,292.56,10.94,4,.18,8.22.44,11.56,2.65s5.22,7.14,2.83,10.36L247.67,115.71c-1.51-.06-4.4-.4-5.54.59s.41,5.14.32,6.74c-.27,4.79-.32,7.7-1.41,12.42,44.82-8.69,91-4.57,136.54-1.77q75.27,4.6,150.71,4.29c2.77,0,6.15.34,7.27,2.87a7.26,7.26,0,0,1,.21,3.82c-.5,4.06-1.3,8.62-4.69,10.92-2.31,1.56-5.28,1.66-8.08,1.7-92,1.38-184.34,2.75-275.84-7.21a98.31,98.31,0,0,0-11.48-.32c-.55.27-3.9,7.44-6.1,10,98.65,3.67,199.67,9,298.12,16.17-.11,7.58-6.6,13.86-13.79,16.26s-13.57.68-21.13.17c-43.4-2.92-85.87-9.21-129.34-10.59-49.45-1.58-99-.37-147.89-8-1.83,1.46-4.15,3.29-11.83,7.69,6.82,4.64,113.28,7.17,121.53,7.35,96,2.08,94,8.83,190,10.91,4.85.11-1.78,6.85,2.53,4.64,7.68-3.95,10.28-13.46,12.17-21.9q9.19-41.13,20.58-81.73c2.31-8.24,4.69-17.09,2-25.21a16.18,16.18,0,0,1-5,15.4A58.53,58.53,0,0,1,554,76.67c-46.9-4.28-94-5.19-141.11-6.11l-101.74-2c-34.15-.66-63.86-4.38-97.88-2.28C216.87,72,224.14,79.23,227,83.68c25.13.61,66.57,1.29,91.69,2.21q75.46,2.77,150.91,5.78Q512.61,93.39,555.64,95.19Z" transform="translate(-5.8 -7.96)" style="fill:#c2aab0;opacity:0.62;mix-blend-mode:soft-light"/><rect x="149.35" y="41.05" width="405.66" height="167.74" style="fill:#495a7d;opacity:0.30000000000000004;mix-blend-mode:multiply"/><path d="M164.56,182.32l-4.67,8s59.45,2.46,79.14-48c15.24-39.1-29.32-77-29.32-77s2-7.35-1.12,5c-.67,2.67,40,31.36,24,71.39C212.82,191.09,164.56,182.32,164.56,182.32Z" transform="translate(-5.8 -7.96)" style="fill:#495a7d;opacity:0.06;mix-blend-mode:multiply"/></g><polygon points="158.98 182.47 206.48 61.16 541.54 71.43 504.31 197.88 513.29 197.88 551.81 65.01 201.35 53.46 149.35 182.47 158.98 182.47" style="fill:#ffd34d"/><path d="M63.49,214.42S154,190.29,158,189.28s352.79,15.46,352.79,15.46l1.94,10.53L394.34,245,64.5,227.49Z" transform="translate(-5.8 -7.96)" style="fill:#ffd34d"/><path d="M63.73,222.85s91.5-28.15,98.53-28.15,349.25,11.71,349.58,15.91S276.89,269.1,276.89,269.1Z" transform="translate(-5.8 -7.96)" style="fill:#7d564f"/><g style="clip-path:url(#clip-path-4)"><rect x="58.21" y="157.44" width="464.71" height="128.37" style="fill:#495a7d;opacity:0.1;mix-blend-mode:multiply"/></g><path d="M131,207.83a15.17,15.17,0,0,0-3.09,11.41,13.27,13.27,0,0,0,6.06,8.85,17.73,17.73,0,0,0,9.83,2.39c5.13-.11,10.43-1.87,14-6s5-11,2.44-16.06a15,15,0,0,0-6-5.94C146.57,197.91,136.7,200.41,131,207.83Z" transform="translate(-5.8 -7.96)" style="fill:#f9a747"/><path d="M136,210.58a9.57,9.57,0,0,0-2,7.23,8.38,8.38,0,0,0,3.83,5.59,11.19,11.19,0,0,0,6.22,1.52A11.9,11.9,0,0,0,153,221.1c2.27-2.63,3.17-7,1.54-10.16a9.47,9.47,0,0,0-3.77-3.76C145.87,204.31,139.62,205.89,136,210.58Z" transform="translate(-5.8 -7.96)" style="fill:#495a7d;opacity:0.1;mix-blend-mode:multiply"/><path d="M247.34,207.27a15.06,15.06,0,0,0-3.09,11.41,13.27,13.27,0,0,0,6.05,8.84,17.79,17.79,0,0,0,9.84,2.4c5.12-.11,10.42-1.88,14-6s5-11,2.43-16.06a14.91,14.91,0,0,0-6-5.93C262.9,197.35,253,199.84,247.34,207.27Z" transform="translate(-5.8 -7.96)" style="fill:#f9a747"/><path d="M252.35,210a9.54,9.54,0,0,0-2,7.22,8.38,8.38,0,0,0,3.84,5.6,11.17,11.17,0,0,0,6.22,1.51,11.83,11.83,0,0,0,8.87-3.81c2.28-2.64,3.17-7,1.54-10.17a9.47,9.47,0,0,0-3.77-3.76C262.2,203.74,256,205.32,252.35,210Z" transform="translate(-5.8 -7.96)" style="fill:#495a7d;opacity:0.1;mix-blend-mode:multiply"/><path d="M149.16,213.17c-2.27,3-2.26,6.21.57,10.72s32.75,4.52,33.88,1.7,1.69-10.17,0-11.86S150.85,210.91,149.16,213.17Z" transform="translate(-5.8 -7.96)" style="fill:#f9a747"/><path d="M256.45,212c-2.27,3-2.26,6.21.56,10.72s32.76,4.52,33.89,1.7,1.69-10.17,0-11.86S258.14,209.78,256.45,212Z" transform="translate(-5.8 -7.96)" style="fill:#f9a747"/><path d="M277.34,223.33c-2.27,3-2.26,6.21.57,10.73s32.75,4.52,33.88,1.69,1.69-10.16,0-11.86S279,221.07,277.34,223.33Z" transform="translate(-5.8 -7.96)" style="fill:#f9a747"/><path d="M228.22,218.81c-2.28,3-2.26,6.21.56,10.73s32.75,4.52,33.88,1.69,1.7-10.16,0-11.85S229.91,216.55,228.22,218.81Z" transform="translate(-5.8 -7.96)" style="fill:#f9a747"/><path d="M171.69,181.33c-.8,3.7.55,6.58,5,9.5s31.64-9.6,31.48-12.63-2.71-9.94-5-10.77S172.28,178.57,171.69,181.33Z" transform="translate(-5.8 -7.96)" style="fill:#f9a747"/><path d="M131,199.61c-1.54,3.46-.81,6.56,3,10.33S166.9,207,167.36,204s-.63-10.29-2.66-11.56S132.15,197,131,199.61Z" transform="translate(-5.8 -7.96)" style="fill:#f9a747"/><path d="M275,178.71c-1.53,3.47-.81,6.56,3,10.33s32.93-2.94,33.4-5.95-.63-10.28-2.66-11.55S276.15,176.13,275,178.71Z" transform="translate(-5.8 -7.96)" style="fill:#f9a747"/><path d="M379.42,180.12c-.8,3.7.54,6.59,5,9.51s31.65-9.56,31.5-12.6-2.7-9.94-5-10.77S380,177.36,379.42,180.12Z" transform="translate(-5.8 -7.96)" style="fill:#f9a747"/><path d="M330.07,182.21c.64,3.73,2.95,5.91,8.17,7s25.82-20.65,24.55-23.41-6.2-8.23-8.6-8.16S329.6,179.42,330.07,182.21Z" transform="translate(-5.8 -7.96)" style="fill:#f9a747"/><path d="M436.35,184c-3.7.79-5.78,3.2-6.61,8.46s21.73,24.91,24.44,23.53,7.95-6.56,7.78-8.95S439.11,183.37,436.35,184Z" transform="translate(-5.8 -7.96)" style="fill:#f9a747"/><path d="M172.88,219.94c-2.33,3-2.26,6.21.56,10.73s31.16,3.05,33.88,1.69c2.26-1.13,5.65-6.77,2.83-11.85C204.55,210.44,180.78,209.78,172.88,219.94Z" transform="translate(-5.8 -7.96)" style="fill:#f9a747"/><path d="M203.37,219.38c0,1.56-5.44,2.82-12.14,2.82s-12.14-1.26-12.14-2.82,5.43-2.83,12.14-2.83S203.37,217.82,203.37,219.38Z" transform="translate(-5.8 -7.96)" style="fill:#495a7d;opacity:0.1;mix-blend-mode:multiply"/><path d="M176.83,202.44c-2.33,3-2.26,6.21.56,10.73s31.17,3.05,33.89,1.69c2.25-1.13,5.64-6.78,2.82-11.86C208.51,192.93,184.74,192.27,176.83,202.44Z" transform="translate(-5.8 -7.96)" style="fill:#f9a747"/><ellipse cx="189.38" cy="193.91" rx="12.14" ry="2.82" style="fill:#495a7d;opacity:0.1;mix-blend-mode:multiply"/><path d="M144.36,206.39c-2.32,3-2.26,6.21.57,10.73s31.16,3,33.88,1.69c2.26-1.13,5.64-6.77,2.82-11.86C176,196.89,152.27,196.22,144.36,206.39Z" transform="translate(-5.8 -7.96)" style="fill:#f9a747"/><path d="M174.85,205.82c0,1.56-5.43,2.83-12.14,2.83s-12.14-1.27-12.14-2.83S156,203,162.71,203,174.85,204.26,174.85,205.82Z" transform="translate(-5.8 -7.96)" style="fill:#495a7d;opacity:0.1;mix-blend-mode:multiply"/><path d="M251.09,207.52c-2.33,3-2.26,6.21.56,10.73s31.16,3.05,33.88,1.69c2.26-1.13,5.65-6.77,2.82-11.86C282.76,198,259,197.35,251.09,207.52Z" transform="translate(-5.8 -7.96)" style="fill:#f9a747"/><path d="M281.58,207c0,1.56-5.44,2.83-12.14,2.83S257.3,208.51,257.3,207s5.43-2.82,12.14-2.82S281.58,205.39,281.58,207Z" transform="translate(-5.8 -7.96)" style="fill:#495a7d;opacity:0.1;mix-blend-mode:multiply"/><path d="M281.22,190.33a15.06,15.06,0,0,0-3.09,11.41,13.27,13.27,0,0,0,6.05,8.84A17.79,17.79,0,0,0,294,213c5.12-.11,10.42-1.88,14-6s5-11,2.43-16.06a14.91,14.91,0,0,0-6-5.93C296.78,180.41,286.9,182.9,281.22,190.33Z" transform="translate(-5.8 -7.96)" style="fill:#f9a747"/><path d="M286.23,193.08a9.58,9.58,0,0,0-2,7.22,8.38,8.38,0,0,0,3.84,5.6,11.17,11.17,0,0,0,6.22,1.51,11.83,11.83,0,0,0,8.87-3.81c2.28-2.64,3.17-7,1.55-10.17a9.56,9.56,0,0,0-3.78-3.76C296.08,186.8,289.83,188.38,286.23,193.08Z" transform="translate(-5.8 -7.96)" style="fill:#495a7d;opacity:0.1;mix-blend-mode:multiply"/><path d="M254.68,184.11a15.1,15.1,0,0,0-3.09,11.42,13.27,13.27,0,0,0,6,8.84,17.78,17.78,0,0,0,9.84,2.39c5.12-.1,10.42-1.87,14-6s5-11,2.43-16.06a14.94,14.94,0,0,0-6-5.94C270.24,174.19,260.36,176.69,254.68,184.11Z" transform="translate(-5.8 -7.96)" style="fill:#f9a747"/><path d="M259.69,186.87a9.57,9.57,0,0,0-2,7.22,8.38,8.38,0,0,0,3.84,5.6,11.17,11.17,0,0,0,6.22,1.51,11.81,11.81,0,0,0,8.87-3.82c2.28-2.63,3.17-7,1.54-10.16a9.47,9.47,0,0,0-3.77-3.76C269.54,180.59,263.29,182.17,259.69,186.87Z" transform="translate(-5.8 -7.96)" style="fill:#495a7d;opacity:0.1;mix-blend-mode:multiply"/><path d="M202.16,208.4a15.15,15.15,0,0,0-3.09,11.41,13.25,13.25,0,0,0,6.06,8.84,17.74,17.74,0,0,0,9.83,2.4c5.13-.11,10.43-1.88,14-6s5-11,2.44-16.06a15,15,0,0,0-6-5.93C217.72,198.48,207.85,201,202.16,208.4Z" transform="translate(-5.8 -7.96)" style="fill:#f9a747"/><path d="M207.18,211.15a9.54,9.54,0,0,0-2,7.22,8.4,8.4,0,0,0,3.83,5.6,11.19,11.19,0,0,0,6.22,1.51,11.83,11.83,0,0,0,8.88-3.82c2.27-2.63,3.17-7,1.54-10.16a9.53,9.53,0,0,0-3.77-3.76C217,204.87,210.77,206.45,207.18,211.15Z" transform="translate(-5.8 -7.96)" style="fill:#495a7d;opacity:0.1;mix-blend-mode:multiply"/><path d="M204.78,210.34c-2.32,3-2.26,6.21.57,10.73s31.16,3.05,33.88,1.69c2.26-1.12,5.64-6.77,2.82-11.85C236.46,200.84,212.69,200.18,204.78,210.34Z" transform="translate(-5.8 -7.96)" style="fill:#f9a747"/><path d="M235.27,209.78c0,1.56-5.43,2.82-12.14,2.82S211,211.34,211,209.78s5.44-2.83,12.14-2.83S235.27,208.22,235.27,209.78Z" transform="translate(-5.8 -7.96)" style="fill:#495a7d;opacity:0.1;mix-blend-mode:multiply"/><path d="M205.35,192.84c-2.33,3-2.26,6.21.56,10.73s31.16,3.05,33.88,1.69c2.26-1.13,5.65-6.78,2.83-11.86C237,183.33,213.25,182.67,205.35,192.84Z" transform="translate(-5.8 -7.96)" style="fill:#f9a747"/><path d="M235.84,192.27c0,1.56-5.44,2.83-12.14,2.83s-12.14-1.27-12.14-2.83,5.43-2.82,12.14-2.82S235.84,190.71,235.84,192.27Z" transform="translate(-5.8 -7.96)" style="fill:#495a7d;opacity:0.1;mix-blend-mode:multiply"/><path d="M159,194.53c-2.32,3-2.26,6.21.57,10.73s31.16,3.05,33.88,1.69c2.26-1.13,5.64-6.77,2.82-11.85C190.72,185,167,184.37,159,194.53Z" transform="translate(-5.8 -7.96)" style="fill:#f9a747"/><ellipse cx="171.6" cy="186" rx="12.14" ry="2.82" style="fill:#495a7d;opacity:0.1;mix-blend-mode:multiply"/><path d="M180.5,187.19c-2.32,3-2.26,6.21.57,10.73S212.23,201,215,199.61c2.25-1.13,5.64-6.77,2.82-11.86C212.18,177.69,188.41,177,180.5,187.19Z" transform="translate(-5.8 -7.96)" style="fill:#f9a747"/><path d="M211,186.62c0,1.56-5.43,2.83-12.14,2.83s-12.14-1.27-12.14-2.83,5.44-2.82,12.14-2.82S211,185.07,211,186.62Z" transform="translate(-5.8 -7.96)" style="fill:#495a7d;opacity:0.1;mix-blend-mode:multiply"/><path d="M285,209.78c-2.33,3-2.26,6.21.56,10.73s31.16,3.05,33.88,1.69c2.26-1.13,5.65-6.78,2.83-11.86C316.64,200.27,292.87,199.61,285,209.78Z" transform="translate(-5.8 -7.96)" style="fill:#f9a747"/><ellipse cx="297.52" cy="201.25" rx="12.14" ry="2.82" style="fill:#495a7d;opacity:0.1;mix-blend-mode:multiply"/><path d="M230.67,195.38a15.11,15.11,0,0,0-3.1,11.41,13.25,13.25,0,0,0,6.06,8.84,17.74,17.74,0,0,0,9.83,2.4c5.13-.11,10.43-1.88,14-6s5-11,2.43-16.06a14.91,14.91,0,0,0-6-5.93C246.23,185.46,236.35,188,230.67,195.38Z" transform="translate(-5.8 -7.96)" style="fill:#f9a747"/><path d="M235.68,198.13a9.54,9.54,0,0,0-2,7.22,8.4,8.4,0,0,0,3.83,5.6,11.31,11.31,0,0,0,6.23,1.52,11.9,11.9,0,0,0,8.87-3.82c2.28-2.64,3.17-7,1.54-10.17a9.51,9.51,0,0,0-3.77-3.75C245.52,191.85,239.27,193.43,235.68,198.13Z" transform="translate(-5.8 -7.96)" style="fill:#495a7d;opacity:0.1;mix-blend-mode:multiply"/><path d="M409.1,175.05A15.17,15.17,0,0,0,406,186.46a13.27,13.27,0,0,0,6.06,8.85,17.73,17.73,0,0,0,9.83,2.39c5.13-.11,10.43-1.87,14-6s5-11,2.44-16.07a15,15,0,0,0-6-5.93C424.66,165.13,414.79,167.63,409.1,175.05Z" transform="translate(-5.8 -7.96)" style="fill:#f9a747"/><path d="M414.12,177.8a9.57,9.57,0,0,0-2,7.23,8.4,8.4,0,0,0,3.83,5.59,11.28,11.28,0,0,0,6.22,1.52,11.9,11.9,0,0,0,8.88-3.82c2.28-2.63,3.17-7,1.54-10.17a9.51,9.51,0,0,0-3.77-3.75C424,171.53,417.71,173.11,414.12,177.8Z" transform="translate(-5.8 -7.96)" style="fill:#495a7d;opacity:0.1;mix-blend-mode:multiply"/><path d="M206.12,178.47a15.11,15.11,0,0,0-3.1,11.41,13.25,13.25,0,0,0,6.06,8.84,17.76,17.76,0,0,0,9.83,2.4c5.13-.11,10.43-1.88,14-6s5-11,2.43-16.06a14.91,14.91,0,0,0-6-5.93C221.68,168.55,211.8,171,206.12,178.47Z" transform="translate(-5.8 -7.96)" style="fill:#f9a747"/><path d="M211.13,181.22a9.54,9.54,0,0,0-2,7.22A8.4,8.4,0,0,0,213,194a11.31,11.31,0,0,0,6.23,1.52,11.88,11.88,0,0,0,8.87-3.82c2.28-2.64,3.17-7,1.54-10.17a9.44,9.44,0,0,0-3.77-3.75C221,174.94,214.72,176.52,211.13,181.22Z" transform="translate(-5.8 -7.96)" style="fill:#495a7d;opacity:0.1;mix-blend-mode:multiply"/><path d="M268.8,214.61A15.11,15.11,0,0,0,265.7,226a13.25,13.25,0,0,0,6.06,8.84,17.76,17.76,0,0,0,9.83,2.4c5.13-.11,10.43-1.88,14-6s5-11,2.43-16.06a14.91,14.91,0,0,0-6-5.93C284.36,204.69,274.48,207.18,268.8,214.61Z" transform="translate(-5.8 -7.96)" style="fill:#f9a747"/><path d="M273.81,217.36a9.54,9.54,0,0,0-2,7.22,8.4,8.4,0,0,0,3.83,5.6,11.31,11.31,0,0,0,6.23,1.52,11.88,11.88,0,0,0,8.87-3.82c2.28-2.64,3.17-7,1.54-10.17a9.44,9.44,0,0,0-3.77-3.75C283.66,211.08,277.4,212.66,273.81,217.36Z" transform="translate(-5.8 -7.96)" style="fill:#495a7d;opacity:0.1;mix-blend-mode:multiply"/><path d="M385.12,214A15.09,15.09,0,0,0,382,225.45a13.29,13.29,0,0,0,6.05,8.85,17.78,17.78,0,0,0,9.84,2.39c5.12-.1,10.42-1.87,14-6s5-11,2.43-16.06a14.94,14.94,0,0,0-6-5.94C400.68,204.12,390.8,206.62,385.12,214Z" transform="translate(-5.8 -7.96)" style="fill:#f9a747"/><path d="M390.13,216.8a9.62,9.62,0,0,0-2,7.22,8.43,8.43,0,0,0,3.84,5.6,11.19,11.19,0,0,0,6.22,1.51,11.92,11.92,0,0,0,8.88-3.82c2.27-2.63,3.17-7,1.54-10.16a9.43,9.43,0,0,0-3.78-3.76C400,210.52,393.73,212.1,390.13,216.8Z" transform="translate(-5.8 -7.96)" style="fill:#495a7d;opacity:0.1;mix-blend-mode:multiply"/><path d="M286.94,219.94c-2.27,3-2.26,6.21.57,10.73s32.75,4.52,33.88,1.69,1.69-10.16,0-11.85S288.64,217.68,286.94,219.94Z" transform="translate(-5.8 -7.96)" style="fill:#f9a747"/><path d="M394.23,218.81c-2.27,3-2.26,6.21.57,10.73s32.75,4.52,33.88,1.69,1.69-10.16,0-11.85S395.93,216.55,394.23,218.81Z" transform="translate(-5.8 -7.96)" style="fill:#f9a747"/><path d="M415.13,230.11c-2.28,3-2.26,6.21.56,10.72s32.75,4.52,33.88,1.7,1.69-10.17,0-11.86S416.82,227.85,415.13,230.11Z" transform="translate(-5.8 -7.96)" style="fill:#f9a747"/><path d="M366,225.59c-2.27,3-2.26,6.21.56,10.73s32.75,4.51,33.88,1.69,1.7-10.16,0-11.86S367.69,223.33,366,225.59Z" transform="translate(-5.8 -7.96)" style="fill:#f9a747"/><path d="M310.66,226.72c-2.33,3-2.26,6.21.56,10.73s31.16,3.05,33.88,1.69c2.26-1.13,5.65-6.78,2.83-11.86C342.33,217.21,318.56,216.55,310.66,226.72Z" transform="translate(-5.8 -7.96)" style="fill:#f9a747"/><ellipse cx="323.21" cy="218.19" rx="12.14" ry="2.82" style="fill:#495a7d;opacity:0.1;mix-blend-mode:multiply"/><path d="M314.61,209.21c-2.32,3-2.26,6.21.57,10.73s31.16,3.06,33.88,1.7c2.26-1.13,5.64-6.78,2.82-11.86C346.29,199.71,322.52,199.05,314.61,209.21Z" transform="translate(-5.8 -7.96)" style="fill:#f9a747"/><path d="M345.1,208.65c0,1.56-5.43,2.82-12.14,2.82s-12.14-1.26-12.14-2.82,5.44-2.83,12.14-2.83S345.1,207.09,345.1,208.65Z" transform="translate(-5.8 -7.96)" style="fill:#495a7d;opacity:0.1;mix-blend-mode:multiply"/><path d="M282.14,213.17c-2.32,3-2.26,6.21.57,10.72s31.16,3.06,33.88,1.7c2.26-1.13,5.65-6.78,2.82-11.86C313.82,203.66,290.05,203,282.14,213.17Z" transform="translate(-5.8 -7.96)" style="fill:#f9a747"/><ellipse cx="294.7" cy="204.64" rx="12.14" ry="2.82" style="fill:#495a7d;opacity:0.1;mix-blend-mode:multiply"/><path d="M388.87,214.29c-2.33,3-2.26,6.22.56,10.73s31.16,3.06,33.88,1.7c2.26-1.13,5.65-6.78,2.83-11.86C420.54,204.79,396.77,204.13,388.87,214.29Z" transform="translate(-5.8 -7.96)" style="fill:#f9a747"/><path d="M419.36,213.73c0,1.56-5.44,2.82-12.14,2.82s-12.14-1.26-12.14-2.82,5.43-2.82,12.14-2.82S419.36,212.17,419.36,213.73Z" transform="translate(-5.8 -7.96)" style="fill:#495a7d;opacity:0.1;mix-blend-mode:multiply"/><path d="M419,197.1a15.13,15.13,0,0,0-3.09,11.41,13.29,13.29,0,0,0,6,8.85,17.78,17.78,0,0,0,9.84,2.39c5.12-.1,10.43-1.87,14-6s5-11,2.44-16.06a15,15,0,0,0-6-5.94C434.56,187.18,424.68,189.68,419,197.1Z" transform="translate(-5.8 -7.96)" style="fill:#f9a747"/><path d="M424,199.86a9.57,9.57,0,0,0-1.95,7.22,8.39,8.39,0,0,0,3.83,5.6,11.19,11.19,0,0,0,6.22,1.51,11.92,11.92,0,0,0,8.88-3.82c2.27-2.63,3.17-7,1.54-10.16a9.43,9.43,0,0,0-3.78-3.76C433.86,193.58,427.61,195.16,424,199.86Z" transform="translate(-5.8 -7.96)" style="fill:#495a7d;opacity:0.1;mix-blend-mode:multiply"/><path d="M392.46,190.89a15.13,15.13,0,0,0-3.09,11.41,13.29,13.29,0,0,0,6.05,8.85,17.78,17.78,0,0,0,9.84,2.39c5.12-.11,10.43-1.87,14-6s5-11,2.44-16.06a15,15,0,0,0-6-5.94C408,181,398.14,183.47,392.46,190.89Z" transform="translate(-5.8 -7.96)" style="fill:#f9a747"/><path d="M397.47,193.64a9.6,9.6,0,0,0-2,7.23,8.34,8.34,0,0,0,3.83,5.59,11.19,11.19,0,0,0,6.22,1.52,11.92,11.92,0,0,0,8.88-3.82c2.27-2.63,3.17-7,1.54-10.16a9.43,9.43,0,0,0-3.78-3.76C407.32,187.37,401.07,189,397.47,193.64Z" transform="translate(-5.8 -7.96)" style="fill:#495a7d;opacity:0.1;mix-blend-mode:multiply"/><path d="M340,215.17a15.13,15.13,0,0,0-3.1,11.41,13.27,13.27,0,0,0,6.06,8.85,17.73,17.73,0,0,0,9.83,2.39c5.13-.1,10.43-1.87,14-6s5-11,2.43-16.06a14.94,14.94,0,0,0-6-5.94C355.51,205.25,345.63,207.75,340,215.17Z" transform="translate(-5.8 -7.96)" style="fill:#f9a747"/><path d="M345,217.93a9.53,9.53,0,0,0-2,7.22,8.42,8.42,0,0,0,3.83,5.6,11.3,11.3,0,0,0,6.23,1.51,11.88,11.88,0,0,0,8.87-3.82c2.28-2.63,3.17-7,1.54-10.16a9.47,9.47,0,0,0-3.77-3.76C354.81,211.65,348.55,213.23,345,217.93Z" transform="translate(-5.8 -7.96)" style="fill:#495a7d;opacity:0.1;mix-blend-mode:multiply"/><path d="M342.56,217.12c-2.32,3-2.25,6.21.57,10.73s31.16,3.05,33.88,1.69c2.26-1.13,5.65-6.78,2.82-11.86C374.24,207.61,350.47,207,342.56,217.12Z" transform="translate(-5.8 -7.96)" style="fill:#f9a747"/><ellipse cx="355.12" cy="208.59" rx="12.14" ry="2.82" style="fill:#495a7d;opacity:0.1;mix-blend-mode:multiply"/><path d="M343.13,199.61c-2.33,3-2.26,6.21.56,10.73s31.16,3.06,33.88,1.7c2.26-1.13,5.65-6.78,2.83-11.86C374.8,190.11,351,189.45,343.13,199.61Z" transform="translate(-5.8 -7.96)" style="fill:#f9a747"/><path d="M373.62,199.05c0,1.56-5.43,2.82-12.14,2.82s-12.14-1.26-12.14-2.82,5.44-2.83,12.14-2.83S373.62,197.49,373.62,199.05Z" transform="translate(-5.8 -7.96)" style="fill:#495a7d;opacity:0.1;mix-blend-mode:multiply"/><path d="M296.82,201.31c-2.32,3-2.25,6.21.57,10.73s31.16,3.05,33.88,1.69c2.26-1.13,5.65-6.78,2.82-11.86C328.5,191.8,304.73,191.14,296.82,201.31Z" transform="translate(-5.8 -7.96)" style="fill:#f9a747"/><path d="M327.32,200.74c0,1.56-5.44,2.83-12.14,2.83S303,202.3,303,200.74s5.43-2.82,12.14-2.82S327.32,199.18,327.32,200.74Z" transform="translate(-5.8 -7.96)" style="fill:#495a7d;opacity:0.1;mix-blend-mode:multiply"/><path d="M318.28,194c-2.32,3-2.26,6.21.57,10.72s31.16,3.06,33.88,1.7c2.26-1.13,5.64-6.78,2.82-11.86C350,184.46,326.19,183.8,318.28,194Z" transform="translate(-5.8 -7.96)" style="fill:#f9a747"/><path d="M348.78,193.4c0,1.56-5.44,2.82-12.15,2.82s-12.14-1.26-12.14-2.82,5.44-2.82,12.14-2.82S348.78,191.84,348.78,193.4Z" transform="translate(-5.8 -7.96)" style="fill:#495a7d;opacity:0.1;mix-blend-mode:multiply"/><path d="M422.75,216.55c-2.33,3-2.26,6.21.56,10.73s31.16,3.06,33.88,1.7c2.26-1.13,5.65-6.78,2.83-11.86C454.42,207.05,430.65,206.39,422.75,216.55Z" transform="translate(-5.8 -7.96)" style="fill:#f9a747"/><path d="M453.24,216c0,1.56-5.43,2.82-12.14,2.82S429,217.55,429,216s5.44-2.82,12.14-2.82S453.24,214.43,453.24,216Z" transform="translate(-5.8 -7.96)" style="fill:#495a7d;opacity:0.1;mix-blend-mode:multiply"/><path d="M368.45,202.15a15.1,15.1,0,0,0-3.09,11.42,13.27,13.27,0,0,0,6.05,8.84,17.77,17.77,0,0,0,9.83,2.39c5.13-.1,10.43-1.87,14-6s5-11,2.43-16.06a14.94,14.94,0,0,0-6-5.94C384,192.23,374.13,194.73,368.45,202.15Z" transform="translate(-5.8 -7.96)" style="fill:#f9a747"/><path d="M373.46,204.91a9.53,9.53,0,0,0-2,7.22,8.4,8.4,0,0,0,3.83,5.6,11.22,11.22,0,0,0,6.23,1.51,11.81,11.81,0,0,0,8.87-3.82c2.28-2.63,3.17-7,1.54-10.16a9.47,9.47,0,0,0-3.77-3.76C383.31,198.63,377.06,200.21,373.46,204.91Z" transform="translate(-5.8 -7.96)" style="fill:#495a7d;opacity:0.1;mix-blend-mode:multiply"/><path d="M343.9,185.24a15.1,15.1,0,0,0-3.09,11.42,13.27,13.27,0,0,0,6.05,8.84,17.78,17.78,0,0,0,9.84,2.39c5.12-.1,10.42-1.87,14-6s5-11,2.43-16.06a14.94,14.94,0,0,0-6-5.94C359.46,175.32,349.58,177.82,343.9,185.24Z" transform="translate(-5.8 -7.96)" style="fill:#f9a747"/><path d="M348.91,188a9.53,9.53,0,0,0-2,7.22,8.38,8.38,0,0,0,3.84,5.6,11.17,11.17,0,0,0,6.22,1.51,11.84,11.84,0,0,0,8.87-3.82c2.28-2.63,3.17-7,1.54-10.16a9.47,9.47,0,0,0-3.77-3.76C358.76,181.72,352.51,183.3,348.91,188Z" transform="translate(-5.8 -7.96)" style="fill:#495a7d;opacity:0.1;mix-blend-mode:multiply"/><path d="M359.5,186.62c-2.32,3-2.25,6.22.57,10.73s31.16,3.06,33.88,1.7c2.26-1.13,5.65-6.78,2.82-11.86C391.18,177.12,367.41,176.46,359.5,186.62Z" transform="translate(-5.8 -7.96)" style="fill:#f9a747"/><path d="M390,186.06c0,1.56-5.44,2.82-12.14,2.82s-12.14-1.26-12.14-2.82,5.43-2.82,12.14-2.82S390,184.5,390,186.06Z" transform="translate(-5.8 -7.96)" style="fill:#495a7d;opacity:0.1;mix-blend-mode:multiply"/><path d="M403.55,191.71c-2.33,3-2.26,6.21.56,10.73s31.16,3.05,33.88,1.69c2.26-1.13,5.65-6.78,2.83-11.86C435.22,182.2,411.45,181.54,403.55,191.71Z" transform="translate(-5.8 -7.96)" style="fill:#f9a747"/><path d="M434,191.14c0,1.56-5.43,2.83-12.14,2.83s-12.14-1.27-12.14-2.83,5.44-2.82,12.14-2.82S434,189.58,434,191.14Z" transform="translate(-5.8 -7.96)" style="fill:#495a7d;opacity:0.1;mix-blend-mode:multiply"/><path d="M298,184.37c-2.32,3-2.25,6.21.57,10.73s31.16,3.05,33.88,1.69c2.26-1.13,5.65-6.78,2.82-11.86C329.63,174.86,305.86,174.2,298,184.37Z" transform="translate(-5.8 -7.96)" style="fill:#f9a747"/><path d="M328.45,183.8c0,1.56-5.44,2.82-12.14,2.82s-12.14-1.26-12.14-2.82S309.6,181,316.31,181,328.45,182.24,328.45,183.8Z" transform="translate(-5.8 -7.96)" style="fill:#495a7d;opacity:0.1;mix-blend-mode:multiply"/><path d="M255,192.84c-2.33,3-2.26,6.21.56,10.73s31.16,3.05,33.88,1.69c2.26-1.13,5.65-6.78,2.83-11.86C286.71,183.33,262.94,182.67,255,192.84Z" transform="translate(-5.8 -7.96)" style="fill:#f9a747"/><path d="M285.53,192.27c0,1.56-5.43,2.83-12.14,2.83s-12.14-1.27-12.14-2.83,5.44-2.82,12.14-2.82S285.53,190.71,285.53,192.27Z" transform="translate(-5.8 -7.96)" style="fill:#495a7d;opacity:0.1;mix-blend-mode:multiply"/><path d="M227.37,180.41c-2.33,3-2.26,6.21.56,10.73s31.16,3.06,33.88,1.7c2.26-1.13,5.65-6.78,2.83-11.86C259,170.91,235.27,170.25,227.37,180.41Z" transform="translate(-5.8 -7.96)" style="fill:#f9a747"/><ellipse cx="239.92" cy="171.89" rx="12.14" ry="2.82" style="fill:#495a7d;opacity:0.1;mix-blend-mode:multiply"/><polygon points="322.42 221.81 331.76 196.04 347.43 186.42 358.83 201.74 343.82 228.87 330.69 228.82 322.42 221.81" style="fill:#99daff"/><g style="clip-path:url(#clip-path-5)"><path d="M325.74,254.51l15.07,2.67c1.72.31,3.62.58,5.1-.34a7.24,7.24,0,0,0,2.38-3.29q6.72-14.43,13.19-29,3.28-7.38,6.5-14.77c1.13-2.6,2.88,5.67,1.29,2.75-2.51-4.6-19-3.65-19.3-3.5-1.59.8-3.59,8-7.81,15.35C340.56,227.18,327,254.73,325.74,254.51Z" transform="translate(-5.8 -7.96)" style="fill:#495a7d;opacity:0.1;mix-blend-mode:multiply"/><polygon points="326.94 231.96 341.51 199.69 339.31 199.22 323.8 231.16 326.94 231.96" style="fill:#fff;opacity:0.63;mix-blend-mode:soft-light"/><polygon points="346.22 191.11 343.52 200.38 324.44 193.74 344.48 201.73 347.19 188.36 346.22 191.11" style="fill:#fff"/></g><polygon points="343.36 200.92 336.36 216.45 344.48 201.73 343.36 200.92" style="fill:#fff"/><path d="M350.28,209.69c.79-.63,11.91-.47,11.91-.47l-11.91-.78Z" transform="translate(-5.8 -7.96)" style="fill:#fff"/><path d="M199,209.2a8.61,8.61,0,1,1-11.5,4A8.61,8.61,0,0,1,199,209.2Z" transform="translate(-5.8 -7.96)" style="fill:#fff"/><g style="clip-path:url(#clip-path-6)"><path d="M184.27,214.89l1.18,3.37a16.91,16.91,0,0,1,3.2.62c4.52,1.12,9.25-1.1,12.81-4.09s6.4-6.79,10-9.74c1.39-1.14,3.22-2.19,4.9-1.56,2.17.82,2.49,3.71,2.38,6a32.33,32.33,0,0,1-1.73,10,13.74,13.74,0,0,1-6.43,7.57c-4.61,2.26-10.24.87-14.73-1.63" transform="translate(-5.8 -7.96)" style="fill:#495a7d;opacity:0.1;mix-blend-mode:multiply"/></g><circle cx="208.64" cy="218.23" r="8.62" transform="translate(-62.18 354.9) rotate(-74.91)" style="fill:#fff"/><g style="clip-path:url(#clip-path-7)"><path d="M192.87,210l-.93,3.45a16.74,16.74,0,0,1,2.3,2.31c3.1,3.47,8.25,4.31,12.89,3.84s9.11-2,13.75-2.42c1.79-.15,3.89,0,4.92,1.47,1.33,1.9,0,4.47-1.42,6.31a32,32,0,0,1-7,7.27,13.81,13.81,0,0,1-9.58,2.64c-5.09-.73-8.95-5.06-11.26-9.65" transform="translate(-5.8 -7.96)" style="fill:#495a7d;opacity:0.1;mix-blend-mode:multiply"/></g><path d="M226.32,221a8.61,8.61,0,1,1-11.76-3.17A8.61,8.61,0,0,1,226.32,221Z" transform="translate(-5.8 -7.96)" style="fill:#fff"/><g style="clip-path:url(#clip-path-8)"><path d="M203.08,217l-.93,3.45a16.74,16.74,0,0,1,2.3,2.31c3.1,3.47,8.26,4.31,12.89,3.84s9.11-2,13.75-2.42c1.79-.15,3.89,0,4.92,1.47,1.33,1.9,0,4.47-1.42,6.31a32,32,0,0,1-7,7.27,13.8,13.8,0,0,1-9.57,2.64c-5.1-.73-9-5.06-11.27-9.65" transform="translate(-5.8 -7.96)" style="fill:#495a7d;opacity:0.1;mix-blend-mode:multiply"/></g><polygon points="55.38 221.86 78.2 404.89 373.8 420.78 387.73 239.52 55.38 221.86" style="fill:#7a5752"/><g style="clip-path:url(#clip-path-9)"><path d="M44,267.78c140.28-3.29,297.14-.15,436.32,17.73C336,294,165,279.36,15.83,289.6c-2.1,1.59-1.49,5.14.49,6.85s4.77,2.1,7.38,2.41c145.48,17,292.86,14.57,437.89,35.06C330,336.79,198.43,316.88,67,323.85c-15.4.81-31.11,2.08-45.28,8.17-2.12.92-4.46,2.26-4.87,4.54-.55,3.07,2.69,5.39,5.56,6.62,10.1,4.35,21.16,5.87,32.08,7.14,121.58,14.21,244.65,3.2,366.92,9,12.6.6,25.31,1.4,37.43,4.86-1.6,4-6.2,5.82-10.35,7C412.79,381.7,375,381.44,337.8,381.1c-90.34-.81-181-1.57-270.6,10.13-15.42,2-30.89,4.4-46.44,4-1.49,0-3.11-.16-4.21-1.17A6.47,6.47,0,0,1,15,390.39,497.5,497.5,0,0,1,7,260.58" transform="translate(-5.8 -7.96)" style="fill:#c2aab0;opacity:0.62;mix-blend-mode:soft-light"/><path d="M104.84,410.66S88.49,263,87.37,260.71s83.43-2.26,85.68,0,217.22,10,217.22,10l5.46-28.06-317.38-9-9.59,5.07,15.79,168Z" transform="translate(-5.8 -7.96)" style="fill:#495a7d;opacity:0.1;mix-blend-mode:multiply"/></g><polygon points="405.39 237.92 391.46 419.17 486.19 384.02 504.94 213.83 405.39 237.92" style="fill:#7a5752"/><g style="clip-path:url(#clip-path-10)"><path d="M393.4,282.18c46.25-6.77,90.3-26.93,137-28.6a570.65,570.65,0,0,1-113.91,36.5c-8.17,1.7-16.51,3.27-23.9,7.15S378.79,307.78,377.43,316a3.36,3.36,0,0,0,.22,2.28c.72,1.14,2.37,1.1,3.7.91,52.68-7.36,103.4-25.39,156-33.23a2.63,2.63,0,0,1,3.58,2.34l5.64,18.7a8,8,0,0,1,.51,3.74c-.59,3.14-4.38,4.32-7.51,4.91q-68.46,12.73-136,30c-5.5,1.4-11.19,2.93-15.53,6.58,52.11-.79,102.87-19.86,155-18.75-15.55,11-35.35,13.37-54.2,16.06a865.55,865.55,0,0,0-102,20.84,4,4,0,0,1-3,0c-1.08-.61-1.32-2-1.44-3.27a666.13,666.13,0,0,1-3.08-81" transform="translate(-5.8 -7.96)" style="fill:#c2aab0;opacity:0.62;mix-blend-mode:soft-light"/><polygon points="405.71 228.5 392.75 416.23 492.53 381.28 504.37 218.36 405.71 228.5" style="fill:#495a7d;opacity:0.1;mix-blend-mode:multiply"/></g><path d="M403,232.29S57.32,215.45,53.47,217.37c0,0,19.28,200.76,22.17,203.65s310.55,19.72,312.48,18.76S500.26,396,500.26,396s15.41-183.91,16.37-187.77S403,232.29,403,232.29ZM370.78,417.63S93.94,403.68,93.94,400.8,74.65,242.88,76.58,241.92l306.2,12.51ZM488.26,382.5l-81.85,30.32s9.11-158.39,12-160.31,81.85-20.22,81.85-19.26C500.26,238.06,488.26,382.5,488.26,382.5Z" transform="translate(-5.8 -7.96)" style="fill:#ffc24d"/><g style="clip-path:url(#clip-path-11)"><polygon points="397.21 213.73 380.84 464.56 526.24 413.05 545.49 180.03 397.21 213.73" style="fill:#495a7d;opacity:0.1;mix-blend-mode:multiply"/><polygon points="47.74 245.42 66.91 246.54 83.26 398.19 364.76 413.75 373.58 258.95 394.44 260.07 418.68 253.87 416.43 232.45 366.25 243.16 38.16 229.63 47.74 245.42" style="fill:#495a7d;opacity:0.1;mix-blend-mode:multiply"/><polygon points="517.74 228.48 497.38 233.11 486.73 372.86 476.09 375.63 489.51 222.93 518.66 220.15 517.74 228.48" style="fill:#495a7d;opacity:0.1;mix-blend-mode:multiply"/></g><path d="M48.68,212.6c-2.32,1.54-.55,32.75,1.09,34.39,1.26,1.27,20.75,2.21,30.57,2.07,2.91-.05,6.6-2.36,7.1-2.61,2.19-1.1,1.09-33.85-.54-34.95S52,210.41,48.68,212.6Z" transform="translate(-5.8 -7.96)" style="fill:#ffad3a"/><g style="clip-path:url(#clip-path-12)"><path d="M78.6,255.67c0,1.16.14,2.49,1.09,3.16a3.18,3.18,0,0,0,2.59.21c4-1,7-4.61,8.49-8.52s1.61-8.15,1.75-12.32c.19-5.34,2.62-52.73-10.54-38.71-5.39,5.76-4.28,17.41-4.37,24.57C77.49,234.07,78.47,245.66,78.6,255.67Z" transform="translate(-5.8 -7.96)" style="fill:#495a7d;opacity:0.1;mix-blend-mode:multiply"/></g><path d="M372.45,224.06c-2.32.77-4.92,34.4-3.28,36s33.55,3.6,35.49,3.27c3.27-.54,24.57-7.64,24.57-7.64L432,223.52s-2.93-2.37-5.54-2.48-19.82,2.09-19.82,2.09-18.26-1.18-28.15-1.25C375.18,221.85,372.85,223.93,372.45,224.06Z" transform="translate(-5.8 -7.96)" style="fill:#ffad3a"/><g style="clip-path:url(#clip-path-13)"><polygon points="395.71 268.37 400.41 219.34 430.14 215.43 431.62 261.41 395.71 268.37" style="fill:#495a7d;opacity:0.1;mix-blend-mode:multiply"/></g><path d="M491.36,207.87c-.78.39-1.07,25.49-.52,27.13.17.51,5.34,1.82,7.17,2.21s20.62-2.15,21-3.65c.54-2.18,3.46-27.07,1.82-28.16-1.15-.77-4.69-1.31-10-.66C508.91,205,491.36,207.87,491.36,207.87Z" transform="translate(-5.8 -7.96)" style="fill:#ffad3a"/><g style="clip-path:url(#clip-path-14)"><path d="M498.07,241.6c.11,2.69-.23,5.93,2,7.38a7.32,7.32,0,0,0,3.52.84,39.86,39.86,0,0,0,10.75-.31,14.19,14.19,0,0,0,9-5.47A21.09,21.09,0,0,0,526,237.2c2.75-10.79,6.57-18,5.29-29.07-.53-4.61-31,1.05-31,1.05A97.89,97.89,0,0,0,498.79,222C498.53,229.7,497.75,234.48,498.07,241.6Z" transform="translate(-5.8 -7.96)" style="fill:#495a7d;opacity:0.1;mix-blend-mode:multiply"/></g><path d="M56.46,234.52a9.09,9.09,0,0,0,6.6,3.33,7.81,7.81,0,0,0,6.08-1.76A8.62,8.62,0,0,0,71.32,232c.61-2.25.75-4.79-.46-6.79a7.94,7.94,0,0,0-3.4-2.87,8.44,8.44,0,0,0-4-.95C57.44,221.72,52.62,229.35,56.46,234.52Z" transform="translate(-5.8 -7.96)" style="fill:#ffd34d"/><path d="M379.48,247.49a9.13,9.13,0,0,0,6.6,3.33,7.84,7.84,0,0,0,6.08-1.77,8.64,8.64,0,0,0,2.18-4.07c.61-2.25.75-4.8-.46-6.79a7.82,7.82,0,0,0-3.4-2.87,8.33,8.33,0,0,0-4.05-.95C380.46,234.68,375.64,242.32,379.48,247.49Z" transform="translate(-5.8 -7.96)" style="fill:#ffd34d"/><path d="M412.92,247.49a6.18,6.18,0,0,0,4.73,3.33,4.63,4.63,0,0,0,4.37-1.77,9.87,9.87,0,0,0,1.56-4.07,11.82,11.82,0,0,0-.32-6.79,6.69,6.69,0,0,0-2.44-2.87,4.69,4.69,0,0,0-2.91-.95C413.62,234.68,410.16,242.32,412.92,247.49Z" transform="translate(-5.8 -7.96)" style="fill:#ffd34d"/><path d="M506.31,225.15a5,5,0,0,0,3.85,2.7,3.76,3.76,0,0,0,3.55-1.43,8.32,8.32,0,0,0,1.26-3.31,9.69,9.69,0,0,0-.26-5.51,5.47,5.47,0,0,0-2-2.33,3.82,3.82,0,0,0-2.37-.77C506.88,214.75,504.07,221,506.31,225.15Z" transform="translate(-5.8 -7.96)" style="fill:#ffd34d"/><path d="M64.24,266.93A3.44,3.44,0,0,0,68.75,265a4.83,4.83,0,0,0,.21-1.65,3.26,3.26,0,0,0-.64-2.06,3.79,3.79,0,0,0-1-.75,4.09,4.09,0,0,0-1.42-.54C62.11,259.55,61.11,265.48,64.24,266.93Z" transform="translate(-5.8 -7.96)" style="fill:#495a7d;opacity:0.1;mix-blend-mode:multiply"/><path d="M388.52,278.35a3.46,3.46,0,0,0,4.52-1.93,4.78,4.78,0,0,0,.21-1.64,3.24,3.24,0,0,0-.64-2.06,3.79,3.79,0,0,0-1-.75,3.92,3.92,0,0,0-1.42-.55C386.4,271,385.39,276.9,388.52,278.35Z" transform="translate(-5.8 -7.96)" style="fill:#495a7d;opacity:0.1;mix-blend-mode:multiply"/><path d="M387.68,296.53a3.45,3.45,0,0,0,4.51-1.93,4.54,4.54,0,0,0,.21-1.64,3.24,3.24,0,0,0-.64-2.06,3.79,3.79,0,0,0-1-.75,3.86,3.86,0,0,0-1.42-.55C385.55,289.15,384.55,295.08,387.68,296.53Z" transform="translate(-5.8 -7.96)" style="fill:#495a7d;opacity:0.1;mix-blend-mode:multiply"/><path d="M386.41,313.86a3.44,3.44,0,0,0,4.51-1.92,4.6,4.6,0,0,0,.21-1.65,3.25,3.25,0,0,0-.63-2.06,3.84,3.84,0,0,0-1-.75,4,4,0,0,0-1.41-.54C384.28,306.48,383.28,312.41,386.41,313.86Z" transform="translate(-5.8 -7.96)" style="fill:#495a7d;opacity:0.1;mix-blend-mode:multiply"/><path d="M384.3,330.77a3.44,3.44,0,0,0,4.51-1.92,4.81,4.81,0,0,0,.21-1.64,3.22,3.22,0,0,0-.64-2.06,3.59,3.59,0,0,0-1-.75,3.92,3.92,0,0,0-1.42-.55C382.17,323.39,381.17,329.32,384.3,330.77Z" transform="translate(-5.8 -7.96)" style="fill:#495a7d;opacity:0.1;mix-blend-mode:multiply"/><path d="M383.87,349.38a3.45,3.45,0,0,0,4.52-1.93,4.78,4.78,0,0,0,.21-1.64,3.24,3.24,0,0,0-.64-2.06,3.79,3.79,0,0,0-1-.75,4,4,0,0,0-1.42-.55C381.75,342,380.74,347.93,383.87,349.38Z" transform="translate(-5.8 -7.96)" style="fill:#495a7d;opacity:0.1;mix-blend-mode:multiply"/><path d="M381.76,368a3.45,3.45,0,0,0,4.51-1.92,4.6,4.6,0,0,0,.21-1.65,3.2,3.2,0,0,0-.64-2.06,3.64,3.64,0,0,0-1-.75,4,4,0,0,0-1.42-.54C379.63,360.6,378.63,366.53,381.76,368Z" transform="translate(-5.8 -7.96)" style="fill:#495a7d;opacity:0.1;mix-blend-mode:multiply"/><path d="M380.49,389.54a3.44,3.44,0,0,0,4.51-1.92,4.57,4.57,0,0,0,.21-1.64,3.16,3.16,0,0,0-.63-2.06,3.64,3.64,0,0,0-1-.75,3.88,3.88,0,0,0-1.41-.55C378.36,382.16,377.36,388.09,380.49,389.54Z" transform="translate(-5.8 -7.96)" style="fill:#495a7d;opacity:0.1;mix-blend-mode:multiply"/><path d="M378.8,410.68a3.44,3.44,0,0,0,4.51-1.92,4.57,4.57,0,0,0,.21-1.64,3.16,3.16,0,0,0-.64-2.06,3.46,3.46,0,0,0-1-.75,3.86,3.86,0,0,0-1.42-.55C376.67,403.3,375.67,409.23,378.8,410.68Z" transform="translate(-5.8 -7.96)" style="fill:#495a7d;opacity:0.1;mix-blend-mode:multiply"/><path d="M398.25,408.15a3.45,3.45,0,0,0,4.51-1.93,4.54,4.54,0,0,0,.21-1.64,3.24,3.24,0,0,0-.64-2.06,3.64,3.64,0,0,0-1-.75,3.86,3.86,0,0,0-1.42-.55C396.12,400.77,395.12,406.7,398.25,408.15Z" transform="translate(-5.8 -7.96)" style="fill:#495a7d;opacity:0.1;mix-blend-mode:multiply"/><path d="M399.09,386.58a3.45,3.45,0,0,0,4.52-1.92,4.81,4.81,0,0,0,.21-1.64,3.22,3.22,0,0,0-.64-2.06,3.59,3.59,0,0,0-1-.75,3.92,3.92,0,0,0-1.42-.55C397,379.2,396,385.13,399.09,386.58Z" transform="translate(-5.8 -7.96)" style="fill:#495a7d;opacity:0.1;mix-blend-mode:multiply"/><path d="M400.36,368.4a3.43,3.43,0,0,0,4.51-1.92,4.81,4.81,0,0,0,.22-1.64,3.22,3.22,0,0,0-.64-2.06,3.5,3.5,0,0,0-1-.75,3.88,3.88,0,0,0-1.41-.55C398.24,361,397.23,367,400.36,368.4Z" transform="translate(-5.8 -7.96)" style="fill:#495a7d;opacity:0.1;mix-blend-mode:multiply"/><path d="M401.63,349a3.44,3.44,0,0,0,4.51-1.92,4.57,4.57,0,0,0,.21-1.64,3.16,3.16,0,0,0-.63-2.06,3.64,3.64,0,0,0-1-.75,3.88,3.88,0,0,0-1.41-.55C399.5,341.57,398.5,347.5,401.63,349Z" transform="translate(-5.8 -7.96)" style="fill:#495a7d;opacity:0.1;mix-blend-mode:multiply"/><path d="M402.9,331.2a3.45,3.45,0,0,0,4.51-1.93,4.54,4.54,0,0,0,.21-1.64,3.18,3.18,0,0,0-.64-2.06,3.64,3.64,0,0,0-1-.75,3.86,3.86,0,0,0-1.42-.55C400.77,323.82,399.77,329.75,402.9,331.2Z" transform="translate(-5.8 -7.96)" style="fill:#495a7d;opacity:0.1;mix-blend-mode:multiply"/><path d="M404.17,311.75a3.44,3.44,0,0,0,4.51-1.93,4.78,4.78,0,0,0,.21-1.64,3.24,3.24,0,0,0-.64-2.06,3.79,3.79,0,0,0-1-.75,3.92,3.92,0,0,0-1.42-.55C402,304.37,401,310.3,404.17,311.75Z" transform="translate(-5.8 -7.96)" style="fill:#495a7d;opacity:0.1;mix-blend-mode:multiply"/><path d="M406.28,293.57a3.44,3.44,0,0,0,4.51-1.93A4.54,4.54,0,0,0,411,290a3.17,3.17,0,0,0-.63-2.06,3.69,3.69,0,0,0-1-.75,3.88,3.88,0,0,0-1.41-.55C404.15,286.19,403.15,292.12,406.28,293.57Z" transform="translate(-5.8 -7.96)" style="fill:#495a7d;opacity:0.1;mix-blend-mode:multiply"/><path d="M407.55,276.65a3.44,3.44,0,0,0,4.51-1.92,4.54,4.54,0,0,0,.21-1.64,3.21,3.21,0,0,0-.63-2.06,5.43,5.43,0,0,0-2.44-1.3C405.42,269.28,404.42,275.2,407.55,276.65Z" transform="translate(-5.8 -7.96)" style="fill:#495a7d;opacity:0.1;mix-blend-mode:multiply"/><path d="M507.28,249.07a2.69,2.69,0,0,0,3.57-1.59,4.13,4.13,0,0,0,.16-1.36,2.68,2.68,0,0,0-.5-1.69,2.87,2.87,0,0,0-.81-.62,2.94,2.94,0,0,0-1.12-.45C505.6,243,504.81,247.87,507.28,249.07Z" transform="translate(-5.8 -7.96)" style="fill:#495a7d;opacity:0.1;mix-blend-mode:multiply"/><path d="M505.59,266.4a2.68,2.68,0,0,0,3.56-1.58,3.91,3.91,0,0,0,.17-1.36,2.71,2.71,0,0,0-.5-1.7,3.06,3.06,0,0,0-.81-.62,3.11,3.11,0,0,0-1.12-.45C503.91,260.31,503.12,265.21,505.59,266.4Z" transform="translate(-5.8 -7.96)" style="fill:#495a7d;opacity:0.1;mix-blend-mode:multiply"/><path d="M504.32,282.89a2.69,2.69,0,0,0,3.57-1.59,4.07,4.07,0,0,0,.16-1.35,2.71,2.71,0,0,0-.5-1.7,3.06,3.06,0,0,0-.81-.62,3.11,3.11,0,0,0-1.12-.45C502.65,276.8,501.85,281.7,504.32,282.89Z" transform="translate(-5.8 -7.96)" style="fill:#495a7d;opacity:0.1;mix-blend-mode:multiply"/><path d="M503.06,299.38a2.68,2.68,0,0,0,3.56-1.59,4.07,4.07,0,0,0,.16-1.35,2.26,2.26,0,0,0-1.31-2.32,3.11,3.11,0,0,0-1.12-.45C501.38,293.29,500.59,298.19,503.06,299.38Z" transform="translate(-5.8 -7.96)" style="fill:#495a7d;opacity:0.1;mix-blend-mode:multiply"/><path d="M501.79,315.87a2.68,2.68,0,0,0,3.56-1.59,4.07,4.07,0,0,0,.17-1.35,2.78,2.78,0,0,0-.51-1.7,2.73,2.73,0,0,0-.81-.62,3.06,3.06,0,0,0-1.11-.45C500.11,309.78,499.32,314.67,501.79,315.87Z" transform="translate(-5.8 -7.96)" style="fill:#495a7d;opacity:0.1;mix-blend-mode:multiply"/><path d="M500.52,332.36a2.68,2.68,0,0,0,3.56-1.59,4.11,4.11,0,0,0,.17-1.35,2.76,2.76,0,0,0-.51-1.7,2.82,2.82,0,0,0-.8-.62,3,3,0,0,0-1.12-.45C498.84,326.27,498.05,331.16,500.52,332.36Z" transform="translate(-5.8 -7.96)" style="fill:#495a7d;opacity:0.1;mix-blend-mode:multiply"/><path d="M499.25,348.85a2.68,2.68,0,0,0,3.56-1.59,4.11,4.11,0,0,0,.17-1.35,2.82,2.82,0,0,0-.5-1.7,2.87,2.87,0,0,0-.81-.62,2.94,2.94,0,0,0-1.12-.45C497.57,342.76,496.78,347.65,499.25,348.85Z" transform="translate(-5.8 -7.96)" style="fill:#495a7d;opacity:0.1;mix-blend-mode:multiply"/><path d="M498,365.34a2.68,2.68,0,0,0,3.56-1.59,3.88,3.88,0,0,0,.17-1.36,2.68,2.68,0,0,0-.5-1.69,2.87,2.87,0,0,0-.81-.62,2.94,2.94,0,0,0-1.12-.45C496.3,359.25,495.51,364.14,498,365.34Z" transform="translate(-5.8 -7.96)" style="fill:#495a7d;opacity:0.1;mix-blend-mode:multiply"/><path d="M65.91,284.35a3.44,3.44,0,0,0,4.51-1.92,4.6,4.6,0,0,0,.21-1.65,3.2,3.2,0,0,0-.63-2,3.45,3.45,0,0,0-1-.75,3.86,3.86,0,0,0-1.42-.55C63.78,277,62.78,282.9,65.91,284.35Z" transform="translate(-5.8 -7.96)" style="fill:#495a7d;opacity:0.1;mix-blend-mode:multiply"/><path d="M68.19,301.77a3.45,3.45,0,0,0,4.52-1.92,4.81,4.81,0,0,0,.21-1.64,3.22,3.22,0,0,0-.64-2.06,3.59,3.59,0,0,0-1-.75,4,4,0,0,0-1.42-.55C66.07,294.39,65.06,300.32,68.19,301.77Z" transform="translate(-5.8 -7.96)" style="fill:#495a7d;opacity:0.1;mix-blend-mode:multiply"/><path d="M69.67,319a3.44,3.44,0,0,0,4.51-1.92,4.83,4.83,0,0,0,.21-1.65,3.21,3.21,0,0,0-.64-2.05,3.41,3.41,0,0,0-1-.75,3.92,3.92,0,0,0-1.42-.55C67.54,311.61,66.54,317.54,69.67,319Z" transform="translate(-5.8 -7.96)" style="fill:#495a7d;opacity:0.1;mix-blend-mode:multiply"/><path d="M71.75,337.43a3.44,3.44,0,0,0,4.51-1.93,4.74,4.74,0,0,0,.21-1.64,3.26,3.26,0,0,0-.64-2.06,3.79,3.79,0,0,0-1-.75,4.11,4.11,0,0,0-1.42-.55C69.62,330.05,68.62,336,71.75,337.43Z" transform="translate(-5.8 -7.96)" style="fill:#495a7d;opacity:0.1;mix-blend-mode:multiply"/><path d="M73,355.19a3.45,3.45,0,0,0,4.51-1.93,4.78,4.78,0,0,0,.21-1.64,3.24,3.24,0,0,0-.64-2.06,3.79,3.79,0,0,0-1-.75,3.92,3.92,0,0,0-1.42-.55C70.89,347.81,69.88,353.74,73,355.19Z" transform="translate(-5.8 -7.96)" style="fill:#495a7d;opacity:0.1;mix-blend-mode:multiply"/><path d="M75.13,373.37a3.45,3.45,0,0,0,4.51-1.93,4.54,4.54,0,0,0,.21-1.64,3.24,3.24,0,0,0-.64-2.06,3.79,3.79,0,0,0-1-.75,3.86,3.86,0,0,0-1.42-.55C73,366,72,371.92,75.13,373.37Z" transform="translate(-5.8 -7.96)" style="fill:#495a7d;opacity:0.1;mix-blend-mode:multiply"/><path d="M77.67,392a3.45,3.45,0,0,0,4.51-1.92,4.83,4.83,0,0,0,.21-1.65,3.26,3.26,0,0,0-.64-2.06,3.79,3.79,0,0,0-1-.75,4.09,4.09,0,0,0-1.42-.54C75.54,384.59,74.54,390.52,77.67,392Z" transform="translate(-5.8 -7.96)" style="fill:#495a7d;opacity:0.1;mix-blend-mode:multiply"/><path d="M192.69,223.33a8.62,8.62,0,1,1-8.62-8.61A8.62,8.62,0,0,1,192.69,223.33Z" transform="translate(-5.8 -7.96)" style="fill:#fff"/><g style="clip-path:url(#clip-path-15)"><path d="M173.22,207.7l-2.52,2.52a17,17,0,0,1,.84,3.15c1,4.56,5,7.85,9.26,9.76s8.89,2.8,13.12,4.76c1.63.76,3.37,1.94,3.54,3.73.21,2.3-2.25,3.86-4.38,4.76a32.45,32.45,0,0,1-9.73,2.79,13.75,13.75,0,0,1-9.61-2.49c-4.05-3.17-5.25-8.85-5-14" transform="translate(-5.8 -7.96)" style="fill:#495a7d;opacity:0.1;mix-blend-mode:multiply"/></g><path d="M181.94,228.2a8.61,8.61,0,1,1-11.51-4A8.62,8.62,0,0,1,181.94,228.2Z" transform="translate(-5.8 -7.96)" style="fill:#fff"/><g style="clip-path:url(#clip-path-16)"><path d="M162.86,225.49l-1.17,3.37a16.65,16.65,0,0,1,2.12,2.47c2.86,3.68,7.93,4.88,12.59,4.75s9.23-1.35,13.88-1.43c1.8,0,3.89.28,4.81,1.82,1.2,2-.34,4.45-1.87,6.19a32.27,32.27,0,0,1-7.54,6.75,13.73,13.73,0,0,1-9.74,1.94c-5-1.09-8.57-5.68-10.54-10.43" transform="translate(-5.8 -7.96)" style="fill:#495a7d;opacity:0.1;mix-blend-mode:multiply"/></g><path d="M178.75,241.92a8.62,8.62,0,1,1-11.51-4A8.62,8.62,0,0,1,178.75,241.92Z" transform="translate(-5.8 -7.96)" style="fill:#fff"/><g style="clip-path:url(#clip-path-17)"><path d="M155.84,240.17l-1.17,3.37a16.65,16.65,0,0,1,2.12,2.47c2.86,3.68,7.93,4.88,12.59,4.75s9.23-1.35,13.88-1.43c1.8,0,3.89.28,4.81,1.82,1.2,2-.34,4.45-1.87,6.19a32.27,32.27,0,0,1-7.54,6.75,13.73,13.73,0,0,1-9.74,1.94c-5-1.09-8.57-5.68-10.54-10.43" transform="translate(-5.8 -7.96)" style="fill:#495a7d;opacity:0.1;mix-blend-mode:multiply"/></g><path d="M344.05,466.52c.64,3.73,2.95,5.91,8.17,7s25.82-20.65,24.55-23.41-6.2-8.23-8.6-8.16S343.58,463.73,344.05,466.52Z" transform="translate(-5.8 -7.96)" style="fill:#f9a747"/><path d="M57.39,416.76c-2.11,3.14-1.94,6.32,1.11,10.69s32.94,2.84,33.93,0,1.17-10.24-.61-11.84S59,414.42,57.39,416.76Z" transform="translate(-5.8 -7.96)" style="fill:#f9a747"/><path d="M125.43,437.3c-2.12,3.14-1.94,6.32,1.11,10.69s32.94,2.84,33.92,0,1.18-10.24-.6-11.84S127,435,125.43,437.3Z" transform="translate(-5.8 -7.96)" style="fill:#f9a747"/><path d="M317.17,425.57a15.1,15.1,0,0,0-6.65,9.77,13.28,13.28,0,0,0,2.82,10.34,17.8,17.8,0,0,0,8.51,5.48c4.88,1.57,10.47,1.64,15.23-1.11s8.33-8.77,7.55-14.38a14.92,14.92,0,0,0-3.69-7.56C335.12,421.29,325,420.41,317.17,425.57Z" transform="translate(-5.8 -7.96)" style="fill:#f9a747"/><path d="M321,429.81a9.57,9.57,0,0,0-4.22,6.18,8.47,8.47,0,0,0,1.79,6.55A11.3,11.3,0,0,0,324,446a11.86,11.86,0,0,0,9.63-.71c3-1.74,5.28-5.55,4.79-9.1a9.54,9.54,0,0,0-2.34-4.78C332.37,427.1,325.94,426.55,321,429.81Z" transform="translate(-5.8 -7.96)" style="fill:#495a7d;opacity:0.1;mix-blend-mode:multiply"/><path d="M364.72,457.37c-2.33,3-2.26,6.22.57,10.73s31.16,3.06,33.88,1.7c2.25-1.13,5.64-6.78,2.82-11.86C396.4,447.87,372.63,447.21,364.72,457.37Z" transform="translate(-5.8 -7.96)" style="fill:#f9a747"/><path d="M395.21,456.81c0,1.56-5.43,2.82-12.14,2.82s-12.14-1.26-12.14-2.82,5.44-2.82,12.14-2.82S395.21,455.25,395.21,456.81Z" transform="translate(-5.8 -7.96)" style="fill:#495a7d;opacity:0.1;mix-blend-mode:multiply"/><path d="M168.31,429.13c-2.33,3-2.26,6.21.56,10.73s31.16,3.05,33.88,1.69c2.26-1.12,5.65-6.77,2.83-11.85C200,419.63,176.21,419,168.31,429.13Z" transform="translate(-5.8 -7.96)" style="fill:#f9a747"/><path d="M198.8,428.57c0,1.56-5.43,2.82-12.14,2.82s-12.14-1.26-12.14-2.82,5.44-2.83,12.14-2.83S198.8,427,198.8,428.57Z" transform="translate(-5.8 -7.96)" style="fill:#495a7d;opacity:0.1;mix-blend-mode:multiply"/></g></g></svg>